<?xml version="1.0" encoding="UTF-8" standalone="no"?>
<!-- Created with Inkscape (http://www.inkscape.org/) -->

<svg
   xmlns:dc="http://purl.org/dc/elements/1.1/"
   xmlns:cc="http://creativecommons.org/ns#"
   xmlns:rdf="http://www.w3.org/1999/02/22-rdf-syntax-ns#"
   xmlns:svg="http://www.w3.org/2000/svg"
   xmlns="http://www.w3.org/2000/svg"
   xmlns:sodipodi="http://sodipodi.sourceforge.net/DTD/sodipodi-0.dtd"
   xmlns:inkscape="http://www.inkscape.org/namespaces/inkscape"
   width="321.6243"
   height="98.773323"
   id="svg3580"
   version="1.1"
   inkscape:version="0.91 r13725"
   sodipodi:docname="logarithm-exponent1.svg">
  <sodipodi:namedview
     id="base"
     pagecolor="#ffffff"
     bordercolor="#666666"
     borderopacity="1.0"
     inkscape:pageopacity="0.0"
     inkscape:pageshadow="2"
     inkscape:zoom="1.8997321"
     inkscape:cx="277.93393"
     inkscape:cy="50.56362"
     inkscape:document-units="px"
     inkscape:current-layer="layer1"
     showgrid="false"
     inkscape:window-width="1366"
     inkscape:window-height="745"
     inkscape:window-x="-8"
     inkscape:window-y="-8"
     inkscape:window-maximized="1"
     showborder="true"
     showguides="true"
     inkscape:guide-bbox="true" />
  <defs
     id="defs3582">
    <marker
       style="overflow:visible"
       id="Arrow1Mstart"
       refX="0"
       refY="0"
       orient="auto"
       inkscape:stockid="Arrow1Mstart">
      <path
         transform="matrix(0.4,0,0,0.4,4,0)"
         style="fill-rule:evenodd;stroke:#000000;stroke-width:1pt;marker-start:none"
         d="M 0,0 5,-5 -12.5,0 5,5 0,0 Z"
         id="path5272"
         inkscape:connector-curvature="0" />
    </marker>
  </defs>
  <metadata
     id="metadata3585">
    <rdf:RDF>
      <cc:Work
         rdf:about="">
        <dc:format>image/svg+xml</dc:format>
        <dc:type
           rdf:resource="http://purl.org/dc/dcmitype/StillImage" />
        <dc:title></dc:title>
      </cc:Work>
    </rdf:RDF>
  </metadata>
  <g
     id="layer1"
     inkscape:groupmode="layer"
     inkscape:label="Layer 1"
     transform="translate(478.61969,-643.42705)">
    <rect
       style="color:#000000;display:inline;overflow:visible;visibility:visible;fill:#b3defd;fill-opacity:0.28404667;fill-rule:nonzero;stroke:none;stroke-width:3;marker:none;enable-background:accumulate"
       id="rect5522"
       width="146.29501"
       height="44.394222"
       x="-303.29041"
       y="674.16156"
       ry="22.197111" />
    <text
       sodipodi:linespacing="121%"
       id="text4172"
       y="402.5256"
       x="-472.02832"
       style="color:#000000;font-style:normal;font-variant:normal;font-weight:normal;font-stretch:normal;font-size:10.41477299px;line-height:121.00000381%;font-family:'Comic Sans MS';-inkscape-font-specification:'Comic Sans MS';text-indent:0;text-align:start;text-decoration:none;text-decoration-line:none;letter-spacing:normal;word-spacing:normal;text-transform:none;direction:ltr;block-progression:tb;writing-mode:lr-tb;text-anchor:start;display:inline;overflow:visible;visibility:visible;fill:#fd3301;fill-opacity:1;fill-rule:nonzero;stroke:none;stroke-width:3;marker:none;enable-background:accumulate"
       xml:space="preserve"><tspan
         id="tspan4174"
         sodipodi:role="line"
         x="-472.02832"
         y="402.5256" /></text>
    <text
       transform="scale(1.0003571,0.99964302)"
       sodipodi:linespacing="121%"
       id="text2452"
       y="737.81134"
       x="-389.73004"
       style="font-style:italic;font-variant:normal;font-weight:normal;font-stretch:normal;font-size:20.25094604px;line-height:121.00000381%;font-family:'Comic Sans MS';-inkscape-font-specification:'Comic Sans MS, Italic';text-indent:0;text-align:start;text-decoration:none;text-decoration-line:none;letter-spacing:normal;word-spacing:normal;text-transform:none;direction:ltr;block-progression:tb;writing-mode:lr-tb;text-anchor:start;display:inline;overflow:visible;visibility:visible;fill:#0197fd;fill-opacity:1;fill-rule:nonzero;stroke:none;stroke-width:1px;marker:none;enable-background:accumulate"
       xml:space="preserve"><tspan
         y="737.81134"
         x="-389.73004"
         id="tspan2454"
         sodipodi:role="line">基(底)</tspan></text>
    <text
       transform="scale(1.0003571,0.99964302)"
       sodipodi:linespacing="100%"
       id="text2474"
       y="663.47278"
       x="-313.41656"
       style="font-style:italic;font-variant:normal;font-weight:normal;font-stretch:normal;font-size:20.25094604px;line-height:100%;font-family:'Comic Sans MS';-inkscape-font-specification:'Comic Sans MS, Italic';text-indent:0;text-align:center;text-decoration:none;text-decoration-line:none;letter-spacing:normal;word-spacing:normal;text-transform:none;direction:ltr;block-progression:tb;writing-mode:lr-tb;text-anchor:middle;display:inline;overflow:visible;visibility:visible;fill:#013397;fill-opacity:1;fill-rule:nonzero;stroke:none;stroke-width:1px;marker:none;enable-background:accumulate"
       xml:space="preserve"><tspan
         y="663.47278"
         x="-313.41656"
         id="tspan2476"
         sodipodi:role="line">指数</tspan></text>
    <rect
       ry="22.197111"
       y="674.16156"
       x="-478.61969"
       height="44.394222"
       width="115.60893"
       id="rect3916-2-1-7-1-9-0-2"
       style="color:#000000;display:inline;overflow:visible;visibility:visible;fill:#b3defd;fill-opacity:0.28404667;fill-rule:nonzero;stroke:none;stroke-width:3;marker:none;enable-background:accumulate" />
    <text
       transform="scale(1.0522682,0.95032806)"
       sodipodi:linespacing="125%"
       id="text2484-79"
       y="744.10168"
       x="-431.81778"
       style="font-style:normal;font-variant:normal;font-weight:normal;font-stretch:normal;font-size:27.51279449px;line-height:125%;font-family:'Comic Sans MS';-inkscape-font-specification:'Comic Sans MS';text-indent:0;text-align:center;text-decoration:none;text-decoration-line:none;letter-spacing:normal;word-spacing:normal;text-transform:none;direction:ltr;block-progression:tb;writing-mode:lr-tb;text-anchor:middle;display:inline;overflow:visible;visibility:visible;fill:#0197fd;fill-opacity:1;fill-rule:nonzero;stroke:none;stroke-width:3;marker:none;enable-background:accumulate"
       xml:space="preserve"><tspan
         style="font-style:normal;font-variant:normal;font-weight:normal;font-stretch:normal;font-size:27.51279449px;line-height:125%;font-family:'Comic Sans MS';-inkscape-font-specification:'Comic Sans MS';text-align:center;writing-mode:lr-tb;text-anchor:middle;fill:#0197fd;stroke:none"
         y="744.10168"
         x="-431.81778"
         id="tspan2486-54"
         sodipodi:role="line">2</tspan></text>
    <text
       transform="scale(1.0522682,0.95032806)"
       sodipodi:linespacing="125%"
       id="text2488-31"
       y="730.66321"
       x="-418.42892"
       style="font-style:normal;font-variant:normal;font-weight:normal;font-stretch:normal;font-size:20.72852135px;line-height:125%;font-family:'Comic Sans MS';-inkscape-font-specification:'Comic Sans MS';text-indent:0;text-align:center;text-decoration:none;text-decoration-line:none;letter-spacing:normal;word-spacing:normal;text-transform:none;direction:ltr;block-progression:tb;writing-mode:lr-tb;text-anchor:middle;display:inline;overflow:visible;visibility:visible;fill:#013397;fill-opacity:1;fill-rule:nonzero;stroke:none;stroke-width:3;marker:none;enable-background:accumulate"
       xml:space="preserve"><tspan
         style="font-style:normal;font-variant:normal;font-weight:normal;font-stretch:normal;font-size:20.72852135px;line-height:125%;font-family:'Comic Sans MS';-inkscape-font-specification:'Comic Sans MS';text-align:center;writing-mode:lr-tb;text-anchor:middle;fill:#013397;stroke:none"
         y="730.66321"
         x="-418.42892"
         id="tspan2490-2"
         sodipodi:role="line">3</tspan></text>
    <text
       transform="scale(1.0522682,0.95032806)"
       sodipodi:linespacing="125%"
       id="text2484-3-3"
       y="741.94434"
       x="-395.61591"
       style="font-style:normal;font-variant:normal;font-weight:normal;font-stretch:normal;font-size:27.51279449px;line-height:125%;font-family:'Comic Sans MS';-inkscape-font-specification:'Comic Sans MS';text-indent:0;text-align:center;text-decoration:none;text-decoration-line:none;letter-spacing:normal;word-spacing:normal;text-transform:none;direction:ltr;block-progression:tb;writing-mode:lr-tb;text-anchor:middle;display:inline;overflow:visible;visibility:visible;fill:#121513;fill-opacity:1;fill-rule:nonzero;stroke:none;stroke-width:3;marker:none;enable-background:accumulate"
       xml:space="preserve"><tspan
         style="font-style:normal;font-variant:normal;font-weight:normal;font-stretch:normal;font-size:27.51279449px;line-height:125%;font-family:'Comic Sans MS';-inkscape-font-specification:'Comic Sans MS';text-align:center;writing-mode:lr-tb;text-anchor:middle;fill:#121513;stroke:none"
         y="741.94434"
         x="-395.61591"
         id="tspan2486-5-3"
         sodipodi:role="line">=</tspan></text>
    <text
       transform="scale(1.0522682,0.95032806)"
       sodipodi:linespacing="125%"
       id="text2484-8-4"
       y="743.56097"
       x="-374.37753"
       style="font-style:normal;font-variant:normal;font-weight:normal;font-stretch:normal;font-size:27.51279449px;line-height:125%;font-family:'Comic Sans MS';-inkscape-font-specification:'Comic Sans MS';text-indent:0;text-align:center;text-decoration:none;text-decoration-line:none;letter-spacing:normal;word-spacing:normal;text-transform:none;direction:ltr;block-progression:tb;writing-mode:lr-tb;text-anchor:middle;display:inline;overflow:visible;visibility:visible;fill:#eec73e;fill-opacity:1;fill-rule:nonzero;stroke:none;stroke-width:3;marker:none;enable-background:accumulate"
       xml:space="preserve"><tspan
         style="font-style:normal;font-variant:normal;font-weight:normal;font-stretch:normal;font-size:27.51279449px;line-height:125%;font-family:'Comic Sans MS';-inkscape-font-specification:'Comic Sans MS';text-align:center;writing-mode:lr-tb;text-anchor:middle;fill:#eec73e;stroke:none"
         y="743.56097"
         x="-374.37753"
         id="tspan2486-4-1"
         sodipodi:role="line">8</tspan></text>
    <text
       xml:space="preserve"
       style="color:#000000;font-style:normal;font-variant:normal;font-weight:normal;font-stretch:normal;font-size:25.73547745px;line-height:121.00000381%;font-family:'Comic Sans MS';-inkscape-font-specification:'Comic Sans MS';text-indent:0;text-align:start;text-decoration:none;text-decoration-line:none;letter-spacing:normal;word-spacing:normal;text-transform:none;direction:ltr;block-progression:tb;writing-mode:lr-tb;text-anchor:start;display:inline;overflow:visible;visibility:visible;fill:#121513;fill-opacity:1;fill-rule:nonzero;stroke:none;stroke-width:3;marker:none;enable-background:accumulate"
       x="-290.78265"
       y="703.31042"
       id="text4019-1-6-9-3"
       sodipodi:linespacing="121%"><tspan
         sodipodi:role="line"
         id="tspan4021-38-5-8-8"
         x="-290.78265"
         y="703.31042">log</tspan></text>
    <text
       xml:space="preserve"
       style="color:#000000;font-style:normal;font-variant:normal;font-weight:normal;font-stretch:normal;font-size:25.73547745px;line-height:121.00000381%;font-family:'Comic Sans MS';-inkscape-font-specification:'Comic Sans MS';text-indent:0;text-align:start;text-decoration:none;text-decoration-line:none;letter-spacing:normal;word-spacing:normal;text-transform:none;direction:ltr;block-progression:tb;writing-mode:lr-tb;text-anchor:start;display:inline;overflow:visible;visibility:visible;fill:#121513;fill-opacity:1;fill-rule:nonzero;stroke:none;stroke-width:3;marker:none;enable-background:accumulate"
       x="-205.66635"
       y="704.85956"
       id="text4039-9-4-1-74"
       sodipodi:linespacing="121%"><tspan
         sodipodi:role="line"
         id="tspan4041-8-6-8-2"
         x="-205.66635"
         y="704.85956">=</tspan></text>
    <text
       xml:space="preserve"
       style="color:#000000;font-style:normal;font-variant:normal;font-weight:normal;font-stretch:normal;font-size:25.73547745px;line-height:121.00000381%;font-family:'Comic Sans MS';-inkscape-font-specification:'Comic Sans MS';text-indent:0;text-align:start;text-decoration:none;text-decoration-line:none;letter-spacing:normal;word-spacing:normal;text-transform:none;direction:ltr;block-progression:tb;writing-mode:lr-tb;text-anchor:start;display:inline;overflow:visible;visibility:visible;fill:#121513;fill-opacity:1;fill-rule:nonzero;stroke:none;stroke-width:3;marker:none;enable-background:accumulate"
       x="-247.03941"
       y="704.77069"
       id="text4019-2-6-0-2-7"
       sodipodi:linespacing="121%"><tspan
         sodipodi:role="line"
         id="tspan4021-3-5-7-6-7"
         x="-247.03941"
         y="704.77069">(</tspan></text>
    <text
       sodipodi:linespacing="121%"
       id="text4164-0-1-6-9"
       y="705.38422"
       x="-220.07739"
       style="color:#000000;font-style:normal;font-variant:normal;font-weight:normal;font-stretch:normal;font-size:25.73547745px;line-height:121.00000381%;font-family:'Comic Sans MS';-inkscape-font-specification:'Comic Sans MS';text-indent:0;text-align:start;text-decoration:none;text-decoration-line:none;letter-spacing:normal;word-spacing:normal;text-transform:none;direction:ltr;block-progression:tb;writing-mode:lr-tb;text-anchor:start;display:inline;overflow:visible;visibility:visible;fill:#121513;fill-opacity:1;fill-rule:nonzero;stroke:none;stroke-width:3;marker:none;enable-background:accumulate"
       xml:space="preserve"><tspan
         y="705.38422"
         x="-220.07739"
         id="tspan4166-2-7-0-3"
         sodipodi:role="line">)</tspan></text>
    <text
       transform="scale(1.0522682,0.95032806)"
       sodipodi:linespacing="125%"
       id="text2484-7-3-1"
       y="750.25537"
       x="-239.52245"
       style="font-style:normal;font-variant:normal;font-weight:normal;font-stretch:normal;font-size:20.16249466px;line-height:125%;font-family:'Comic Sans MS';-inkscape-font-specification:'Comic Sans MS';text-indent:0;text-align:center;text-decoration:none;text-decoration-line:none;letter-spacing:normal;word-spacing:normal;text-transform:none;direction:ltr;block-progression:tb;writing-mode:lr-tb;text-anchor:middle;display:inline;overflow:visible;visibility:visible;fill:#0197fd;fill-opacity:1;fill-rule:nonzero;stroke:none;stroke-width:3;marker:none;enable-background:accumulate"
       xml:space="preserve"><tspan
         style="font-style:normal;font-variant:normal;font-weight:normal;font-stretch:normal;font-size:20.16249466px;line-height:125%;font-family:'Comic Sans MS';-inkscape-font-specification:'Comic Sans MS';text-align:center;writing-mode:lr-tb;text-anchor:middle;fill:#0197fd;stroke:none"
         y="750.25537"
         x="-239.52245"
         id="tspan2486-7-8-9"
         sodipodi:role="line">2</tspan></text>
    <text
       transform="scale(1.0522682,0.95032806)"
       sodipodi:linespacing="125%"
       id="text2484-8-7-0-8"
       y="743.07898"
       x="-216.34021"
       style="font-style:normal;font-variant:normal;font-weight:normal;font-stretch:normal;font-size:29.56919289px;line-height:125%;font-family:'Comic Sans MS';-inkscape-font-specification:'Comic Sans MS';text-indent:0;text-align:center;text-decoration:none;text-decoration-line:none;letter-spacing:normal;word-spacing:normal;text-transform:none;direction:ltr;block-progression:tb;writing-mode:lr-tb;text-anchor:middle;display:inline;overflow:visible;visibility:visible;fill:#eec73e;fill-opacity:1;fill-rule:nonzero;stroke:none;stroke-width:3;marker:none;enable-background:accumulate"
       xml:space="preserve"><tspan
         style="font-style:normal;font-variant:normal;font-weight:normal;font-stretch:normal;font-size:29.56919289px;line-height:125%;font-family:'Comic Sans MS';-inkscape-font-specification:'Comic Sans MS';text-align:center;writing-mode:lr-tb;text-anchor:middle;fill:#eec73e;stroke:none"
         y="743.07898"
         x="-216.34021"
         id="tspan2486-4-3-1-6"
         sodipodi:role="line">8</tspan></text>
    <text
       transform="scale(1.0522682,0.95032806)"
       sodipodi:linespacing="125%"
       id="text2488-3-2-5"
       y="742.75513"
       x="-168.91928"
       style="font-style:normal;font-variant:normal;font-weight:normal;font-stretch:normal;font-size:29.32871437px;line-height:125%;font-family:'Comic Sans MS';-inkscape-font-specification:'Comic Sans MS';text-indent:0;text-align:center;text-decoration:none;text-decoration-line:none;letter-spacing:normal;word-spacing:normal;text-transform:none;direction:ltr;block-progression:tb;writing-mode:lr-tb;text-anchor:middle;display:inline;overflow:visible;visibility:visible;fill:#013397;fill-opacity:1;fill-rule:nonzero;stroke:none;stroke-width:3;marker:none;enable-background:accumulate"
       xml:space="preserve"><tspan
         style="font-style:normal;font-variant:normal;font-weight:normal;font-stretch:normal;font-size:29.32871437px;line-height:125%;font-family:'Comic Sans MS';-inkscape-font-specification:'Comic Sans MS';text-align:center;writing-mode:lr-tb;text-anchor:middle;fill:#013397;stroke:none"
         y="742.75513"
         x="-168.91928"
         id="tspan2490-5-5-0"
         sodipodi:role="line">3</tspan></text>
    <g
       style="fill:#ffff00"
       transform="matrix(0.57844843,-0.01317694,0.01317694,0.57844843,-210.96068,289.06966)"
       id="g6330">
      <path
         style="color:#000000;display:inline;overflow:visible;visibility:visible;fill:#ffff00;fill-opacity:1;fill-rule:nonzero;stroke:none;stroke-width:3.4569838;marker:none;enable-background:accumulate"
         id="path6320"
         d="m -254.21938,699.82692 c 0.14357,-0.16602 0.29382,-0.326 0.44531,-0.48477 0.1861,-0.20088 0.38953,-0.38398 0.59951,-0.55931 0.31767,-0.26357 0.6707,-0.47779 1.02979,-0.6791 0.38427,-0.20973 0.78422,-0.38799 1.18698,-0.55862 0.35707,-0.14875 0.71778,-0.28855 1.07925,-0.42617 0.34402,-0.13468 0.69147,-0.26008 1.03989,-0.3828 0.3942,-0.13817 0.79316,-0.26223 1.19332,-0.38183 0.42131,-0.12463 0.84648,-0.23553 1.27233,-0.34341 0.41127,-0.10306 0.82351,-0.20216 1.23737,-0.29425 0.40871,-0.0894 0.81931,-0.16971 1.23041,-0.24725 0.41495,-0.0781 0.83139,-0.14788 1.2483,-0.21462 0.43385,-0.069 0.86893,-0.12972 1.30429,-0.18822 0.44373,-0.0568 0.88855,-0.10448 1.3333,-0.15239 0.42909,-0.0475 0.85892,-0.0877 1.28929,-0.12159 0.44776,-0.0358 0.89664,-0.0535 1.34566,-0.0624 0.45741,-0.008 0.91484,0.002 1.37196,0.0176 0.42938,0.0147 0.85836,0.0385 1.28734,0.0618 0.42188,0.024 0.84332,0.0544 1.26426,0.0912 0.40116,0.0347 0.80105,0.0819 1.20089,0.12893 0.39279,0.0483 0.7848,0.10256 1.17606,0.16196 0.37199,0.0563 0.74295,0.11911 1.11313,0.18619 0.35108,0.0641 0.70124,0.13317 1.0508,0.20508 0.33534,0.0691 0.66982,0.14239 1.00364,0.21854 0.34329,0.078 0.68487,0.16319 1.02539,0.2524 0.34449,0.0901 0.68672,0.18864 1.02837,0.28893 0.34853,0.10178 0.6957,0.20818 1.04147,0.31894 0.36966,0.11711 0.73411,0.24973 1.09791,0.3837 0.35499,0.13212 0.70654,0.27312 1.05832,0.41347 0.32365,0.13226 0.6496,0.25872 0.97551,0.38526 0.3302,0.12604 0.66113,0.2502 0.99157,0.37563 0.32548,0.12276 0.65036,0.24712 0.97673,0.36753 0.30928,0.11315 0.61959,0.22337 0.93174,0.32836 0.3194,0.1049 0.6396,0.2074 0.96081,0.30665 0.33936,0.10763 0.68011,0.21076 1.02101,0.31336 0.3226,0.0975 0.64776,0.18621 0.9737,0.27181 0.33366,0.0872 0.66923,0.16688 1.00528,0.24431 0.33947,0.0779 0.68031,0.14958 1.02151,0.21939 0.33933,0.0692 0.67954,0.13388 1.02005,0.19697 0.31626,0.0594 0.63431,0.1087 0.95223,0.15826 0.31698,0.0494 0.63434,0.0962 0.9517,0.14309 0.2763,0.0426 0.55335,0.0793 0.83083,0.11318 0.25236,0.0325 0.50571,0.0558 0.75909,0.0785 0.22112,0.0189 0.44288,0.0262 0.66467,0.0311 0.23309,0.003 0.46609,-0.003 0.69906,-0.009 0.25041,-0.006 0.50062,-0.0159 0.75079,-0.0281 0.25752,-0.0128 0.51505,-0.0254 0.7726,-0.0376 0.21422,-0.0132 0.42825,-0.0288 0.64204,-0.0475 0.24041,-0.0215 0.4808,-0.0432 0.72124,-0.0643 0.20385,-0.0171 0.40769,-0.0334 0.61068,-0.0589 0.1879,-0.0223 0.37448,-0.0541 0.56013,-0.0903 0.21744,-0.0409 0.43375,-0.0871 0.6497,-0.13513 0.21375,-0.0478 0.42739,-0.0962 0.64104,-0.14442 0.1763,-0.0392 0.35303,-0.0765 0.52798,-0.12144 0.14409,-0.0365 0.28627,-0.0799 0.42819,-0.12399 0.17259,-0.0539 0.34505,-0.10815 0.51752,-0.16238 0.10736,-0.0325 0.21273,-0.071 0.31747,-0.11096 0.11917,-0.0457 0.23666,-0.0957 0.35445,-0.14479 0.13036,-0.0544 0.26068,-0.10889 0.39101,-0.16336 0.11604,-0.0485 0.23208,-0.097 0.34812,-0.14553 0.10262,-0.0429 0.20524,-0.0858 0.30786,-0.12869 0.0907,-0.0379 0.18147,-0.0759 0.2722,-0.11379 0.10756,-0.0473 0.21784,-0.087 0.32788,-0.12819 0,0 1.82685,5.28259 1.82685,5.28259 l 0,0 c 0.27008,-0.1061 0.0578,-0.0227 4.1e-4,0.003 -0.0907,0.0379 -0.18149,0.0758 -0.27223,0.11372 -0.10263,0.0429 -0.20526,0.0857 -0.30789,0.12861 -0.11609,0.0485 -0.23218,0.097 -0.34827,0.14548 -0.13211,0.0552 -0.26421,0.11038 -0.39635,0.16549 -0.17327,0.0722 -0.34636,0.14492 -0.52193,0.21136 -0.20597,0.0779 -0.41336,0.15222 -0.62387,0.21703 -0.17896,0.0562 -0.35791,0.1125 -0.53699,0.16834 -0.2364,0.0733 -0.47378,0.14371 -0.71381,0.20432 -0.22173,0.0557 -0.44448,0.10677 -0.66796,0.15489 -0.21984,0.0496 -0.43966,0.0993 -0.6596,0.14841 -0.26904,0.0597 -0.53861,0.11678 -0.80939,0.16806 -0.31024,0.0589 -0.62165,0.11216 -0.93536,0.14922 -0.26587,0.032 -0.53231,0.0578 -0.79927,0.0787 -0.24134,0.0212 -0.48261,0.043 -0.72392,0.0645 -0.28731,0.025 -0.57494,0.0461 -0.86288,0.0624 -0.25561,0.0121 -0.5112,0.0246 -0.76678,0.0373 -0.28797,0.0139 -0.576,0.0256 -0.86424,0.0324 -0.32771,0.009 -0.65552,0.0158 -0.98337,0.01 -0.34608,-0.008 -0.69207,-0.0216 -1.03701,-0.052 -0.31313,-0.0281 -0.62615,-0.0578 -0.93805,-0.0976 -0.32374,-0.0396 -0.64699,-0.0827 -0.9694,-0.13203 -0.33222,-0.0491 -0.66445,-0.0982 -0.99627,-0.15001 -0.37045,-0.0578 -0.74094,-0.11595 -1.10946,-0.1852 -0.37463,-0.0695 -0.74893,-0.14077 -1.12226,-0.21696 -0.38625,-0.0791 -0.77207,-0.16044 -1.15634,-0.24875 -0.39138,-0.0903 -0.78215,-0.18333 -1.17072,-0.28513 -0.38942,-0.1025 -0.7779,-0.20866 -1.16337,-0.32523 -0.35433,-0.10668 -0.70853,-0.2138 -1.06128,-0.32561 -0.36562,-0.11315 -0.73023,-0.22961 -1.09368,-0.34956 -0.36278,-0.12235 -0.72371,-0.24995 -1.08316,-0.38178 -0.34246,-0.1265 -0.68354,-0.25666 -1.02506,-0.38567 -0.34346,-0.13046 -0.68755,-0.25931 -1.03068,-0.39064 -0.34195,-0.1328 -0.68396,-0.26549 -1.02358,-0.40416 -0.30549,-0.12188 -0.61065,-0.24463 -0.91871,-0.35989 -0.29016,-0.10687 -0.58047,-0.21376 -0.87537,-0.30698 -0.30128,-0.0971 -0.60428,-0.18881 -0.90804,-0.27785 -0.28981,-0.0852 -0.58013,-0.16891 -0.87236,-0.2455 -0.28288,-0.0745 -0.56686,-0.14485 -0.8521,-0.20981 -0.29452,-0.0676 -0.58986,-0.13166 -0.88575,-0.19297 -0.30683,-0.0634 -0.61429,-0.12376 -0.92246,-0.18028 -0.31741,-0.058 -0.63566,-0.11131 -0.95466,-0.15981 -0.32875,-0.0503 -0.65823,-0.0955 -0.98825,-0.13669 -0.34546,-0.0407 -0.6909,-0.0821 -1.03749,-0.11219 -0.35843,-0.0318 -0.71734,-0.0571 -1.07656,-0.078 -0.39345,-0.0213 -0.78686,-0.0436 -1.18068,-0.0571 -0.35737,-0.0128 -0.715,-0.0212 -1.0726,-0.015 -0.3386,0.006 -0.67706,0.0199 -1.0147,0.0464 -0.37593,0.029 -0.75125,0.0651 -1.12604,0.10632 -0.39604,0.0426 -0.79216,0.0849 -1.18738,0.13469 -0.38898,0.0522 -0.77773,0.10635 -1.16537,0.1679 -0.36608,0.0585 -0.73175,0.11971 -1.09612,0.1882 -0.35275,0.0664 -0.70508,0.13518 -1.05586,0.21145 -0.35992,0.0794 -0.718,0.16685 -1.07567,0.25579 -0.34992,0.0885 -0.69938,0.17909 -1.04567,0.28102 -0.3134,0.0933 -0.62582,0.1903 -0.93463,0.29795 -0.3047,0.10734 -0.60861,0.21683 -0.90931,0.33502 -0.29836,0.11343 -0.59612,0.22854 -0.89108,0.35057 -0.21862,0.0921 -0.4365,0.18615 -0.64702,0.2958 -0.0629,0.0342 -0.12574,0.0684 -0.18718,0.10502 -0.008,0.007 -0.0847,0.0652 -0.11456,0.1083 -0.0829,0.0868 -0.16577,0.1737 -0.2456,0.26339 0,0 -4.24254,-3.63787 -4.24254,-3.63787 z"
         inkscape:connector-curvature="0" />
      <path
         style="color:#000000;display:inline;overflow:visible;visibility:visible;fill:#ffff00;fill-opacity:1;fill-rule:nonzero;stroke:none;stroke-width:3.4569838;marker:none;enable-background:accumulate"
         id="path6322"
         d="m -213.83998,690.14028 c 0.1531,0.13157 0.30693,0.26227 0.46146,0.39214 0.17341,0.14613 0.34985,0.28856 0.52509,0.43246 0.18724,0.15326 0.37254,0.30888 0.56028,0.46153 0.18458,0.15286 0.37079,0.30382 0.55957,0.45148 0.21434,0.17049 0.43142,0.33742 0.64917,0.50352 0.23959,0.18012 0.47943,0.35991 0.7185,0.54072 0.23033,0.17546 0.46183,0.34934 0.69486,0.52119 0.21804,0.16065 0.44123,0.31401 0.66581,0.46531 0.25312,0.16897 0.51048,0.33142 0.76631,0.49623 0.26559,0.16897 0.53054,0.33894 0.79505,0.50961 0.22902,0.14999 0.46177,0.29401 0.6966,0.43466 0.23497,0.13913 0.47567,0.26814 0.71637,0.39697 0.27307,0.14363 0.54653,0.28652 0.82117,0.42711 0.2682,0.13983 0.53895,0.27456 0.80999,0.40875 0.25297,0.12434 0.50802,0.24449 0.76466,0.36104 0.27599,0.12352 0.55345,0.2437 0.83081,0.36408 0.27925,0.12116 0.55787,0.24371 0.83809,0.36261 0.26282,0.11102 0.52696,0.21887 0.79061,0.32789 0.23731,0.0989 0.47641,0.19341 0.71639,0.28559 0.25261,0.095 0.50385,0.19349 0.75501,0.29221 0.20725,0.0823 0.41555,0.16177 0.62474,0.23893 0.19686,0.0724 0.39465,0.14231 0.59282,0.21107 0.18861,0.0653 0.37731,0.13039 0.56654,0.1939 0.17408,0.058 0.34799,0.1165 0.52233,0.1737 0.15285,0.0506 0.30657,0.0985 0.46025,0.1465 0.1447,0.0453 0.28993,0.089 0.43508,0.1329 0.13103,0.0388 0.26232,0.0766 0.39358,0.11466 0.12074,0.0351 0.24192,0.0687 0.36303,0.10256 0.10781,0.0303 0.21616,0.0587 0.3244,0.0874 0.10059,0.0271 0.20144,0.0532 0.30237,0.079 0.0983,0.025 0.19665,0.0499 0.29499,0.0749 0.081,0.0206 0.16204,0.0412 0.24316,0.0613 0.13162,0.0307 0.1179,0.027 -0.0189,8e-5 -0.15446,-0.0182 -0.0799,-0.0117 -0.22357,-0.0203 0,0 -0.0904,5.58868 -0.0904,5.58868 l 0,0 c -0.2884,-0.0107 -0.1426,-10e-4 -0.43734,-0.0296 -0.1878,-0.0274 -0.3743,-0.0619 -0.55813,-0.10942 -0.0965,-0.0237 -0.1927,-0.0484 -0.289,-0.0728 -0.10092,-0.0256 -0.20185,-0.0512 -0.30275,-0.0769 -0.11841,-0.0303 -0.23675,-0.0609 -0.35478,-0.0927 -0.13177,-0.035 -0.26364,-0.0697 -0.39489,-0.10669 -0.13793,-0.0386 -0.27592,-0.077 -0.41344,-0.11698 -0.15257,-0.0442 -0.30519,-0.0883 -0.45741,-0.13364 -0.16133,-0.0489 -0.32274,-0.0975 -0.48358,-0.14792 -0.17922,-0.056 -0.35844,-0.11212 -0.53673,-0.17109 -0.18606,-0.0612 -0.37174,-0.12348 -0.55751,-0.18551 -0.20714,-0.0696 -0.41374,-0.14074 -0.6202,-0.21235 -0.2329,-0.0809 -0.46533,-0.16314 -0.69668,-0.24838 -0.24535,-0.0907 -0.48986,-0.18374 -0.73298,-0.28029 -0.23822,-0.0937 -0.47651,-0.1872 -0.71614,-0.27724 -0.2833,-0.10907 -0.56566,-0.22058 -0.84589,-0.33735 -0.27992,-0.11577 -0.56037,-0.23029 -0.83931,-0.34841 -0.29375,-0.12483 -0.58607,-0.25291 -0.87877,-0.38016 -0.30731,-0.1334 -0.61471,-0.26659 -0.92032,-0.40384 -0.31188,-0.14212 -0.62223,-0.28772 -0.92961,-0.43936 -0.29372,-0.14542 -0.58705,-0.2916 -0.87778,-0.44294 -0.30459,-0.15605 -0.60798,-0.31443 -0.91071,-0.47403 -0.32038,-0.17144 -0.64002,-0.34449 -0.95224,-0.53053 -0.28771,-0.17251 -0.57303,-0.34895 -0.85387,-0.53249 -0.26373,-0.17019 -0.52793,-0.33965 -0.79271,-0.50821 -0.2878,-0.18563 -0.5775,-0.36834 -0.86189,-0.5592 -0.29001,-0.19551 -0.57786,-0.39421 -0.85944,-0.60175 -0.2512,-0.18526 -0.50086,-0.37258 -0.74914,-0.56174 -0.245,-0.18532 -0.49091,-0.36943 -0.73631,-0.55421 -0.23785,-0.18136 -0.47493,-0.36372 -0.7092,-0.54971 -0.21534,-0.16919 -0.429,-0.34056 -0.63976,-0.51542 -0.19348,-0.15775 -0.38518,-0.31765 -0.5781,-0.47607 -0.19131,-0.15714 -0.38393,-0.31268 -0.57322,-0.47226 -0.16718,-0.14042 -0.33373,-0.28159 -0.49903,-0.42422 0,0 3.6326,-4.24694 3.6326,-4.24694 z"
         inkscape:connector-curvature="0" />
      <path
         style="color:#000000;display:inline;overflow:visible;visibility:visible;fill:#ffff00;fill-opacity:1;fill-rule:nonzero;stroke:none;stroke-width:3.4569838;marker:none;enable-background:accumulate"
         id="path6324"
         d="m -213.63392,709.61675 c 0.16367,-0.0924 0.32512,-0.18858 0.48588,-0.28593 0.19594,-0.12045 0.39058,-0.24301 0.58583,-0.36457 0.22902,-0.14497 0.46001,-0.28681 0.69234,-0.42641 0.25791,-0.15379 0.52124,-0.2981 0.78496,-0.44159 0.23336,-0.12524 0.46696,-0.25002 0.69873,-0.37821 0.22418,-0.12484 0.44692,-0.25228 0.66976,-0.3795 0.25282,-0.14362 0.50711,-0.2846 0.76309,-0.4225 0.27061,-0.14486 0.54352,-0.28539 0.81688,-0.42498 0.26664,-0.13647 0.53282,-0.27385 0.7995,-0.41026 0.25925,-0.1315 0.51846,-0.26304 0.77784,-0.39429 0.25443,-0.12857 0.50859,-0.25768 0.76305,-0.38621 0.25812,-0.13058 0.51609,-0.26147 0.77542,-0.38965 0.24346,-0.12281 0.48832,-0.2428 0.73277,-0.3636 0.25728,-0.125 0.51318,-0.2528 0.77025,-0.37821 0.24771,-0.12482 0.49753,-0.24534 0.74673,-0.36713 0.2525,-0.12473 0.50705,-0.24524 0.76114,-0.36668 0.25044,-0.11918 0.50008,-0.24002 0.75094,-0.35831 0.2571,-0.12136 0.5162,-0.23838 0.77644,-0.3528 0.24749,-0.10757 0.49637,-0.21199 0.74573,-0.31514 0.22814,-0.0927 0.45699,-0.18363 0.68482,-0.27714 0.21897,-0.0908 0.43872,-0.17968 0.65905,-0.26713 0.21366,-0.086 0.43012,-0.16477 0.6457,-0.24579 0.19705,-0.0756 0.39507,-0.14849 0.59314,-0.22131 0.18328,-0.0679 0.3673,-0.1338 0.55134,-0.19962 0.15839,-0.0566 0.3168,-0.11315 0.47521,-0.16969 0.16919,-0.0594 0.33907,-0.11689 0.50945,-0.17282 0.14896,-0.0492 0.29861,-0.0962 0.44828,-0.1432 0.19483,-0.0645 0.39194,-0.12004 0.59136,-0.16841 0,0 1.24485,5.44893 1.24485,5.44893 l 0,0 c 0.20751,-0.0618 -0.1025,0.0326 -0.16263,0.0523 -0.12677,0.0398 -0.25357,0.0794 -0.37973,0.12112 -0.12479,0.0409 -0.24917,0.083 -0.37319,0.12612 -0.15733,0.0561 -0.31466,0.11223 -0.47197,0.16841 -0.16857,0.0602 -0.33715,0.12048 -0.505,0.1827 -0.18616,0.0684 -0.37227,0.13692 -0.55744,0.20798 -0.18331,0.0687 -0.36739,0.13549 -0.54909,0.20845 -0.2,0.0792 -0.39936,0.16008 -0.5981,0.24243 -0.22359,0.0917 -0.448,0.1813 -0.67207,0.27181 -0.21158,0.0873 -0.42254,0.17612 -0.63262,0.26691 -0.21511,0.0943 -0.4291,0.19119 -0.64157,0.29133 -0.24187,0.11385 -0.48236,0.23063 -0.72379,0.3454 -0.23932,0.1143 -0.47904,0.22779 -0.71684,0.34526 -0.25089,0.12257 -0.50231,0.24407 -0.75176,0.36955 -0.248,0.12073 -0.49454,0.24441 -0.74273,0.36474 -0.24481,0.12099 -0.49001,0.24122 -0.73385,0.36414 -0.2445,0.12067 -0.48746,0.24438 -0.73083,0.3673 -0.25334,0.12793 -0.50635,0.25653 -0.75965,0.38453 -0.25228,0.12761 -0.50438,0.25554 -0.75655,0.38335 -0.26789,0.13692 -0.5352,0.27498 -0.80301,0.41206 -0.23757,0.1212 -0.47466,0.24339 -0.7099,0.36907 -0.21485,0.11535 -0.42776,0.23424 -0.64001,0.35431 -0.24542,0.14009 -0.49074,0.28035 -0.73773,0.41764 -0.24237,0.13381 -0.48617,0.26499 -0.73029,0.39558 -0.19464,0.10592 -0.38942,0.21164 -0.58016,0.32453 -0.20653,0.12376 -0.41136,0.25035 -0.61483,0.37906 -0.21485,0.13372 -0.42884,0.26884 -0.64471,0.40092 -0.20571,0.12452 -0.41233,0.24754 -0.62189,0.36551 0,0 -2.75854,-4.86033 -2.75854,-4.86033 z"
         inkscape:connector-curvature="0" />
      <path
         style="color:#000000;display:inline;overflow:visible;visibility:visible;fill:#ffff00;fill-opacity:1;fill-rule:nonzero;stroke:none;stroke-width:3.4569838;marker:none;enable-background:accumulate"
         id="path6326"
         d="m -259.86118,696.76954 c 0.21047,-0.0453 0.42002,-0.0948 0.62942,-0.1448 0.30017,-0.0703 0.60032,-0.14083 0.90098,-0.20904 0.30298,-0.0686 0.60702,-0.13226 0.91048,-0.19862 0.31381,-0.0676 0.62699,-0.13811 0.94019,-0.20847 0.38592,-0.0876 0.77405,-0.16478 1.16265,-0.2394 0.35738,-0.0663 0.71467,-0.13302 1.07146,-0.20251 0.32594,-0.0638 0.65223,-0.12575 0.9778,-0.19145 0.2983,-0.061 0.59471,-0.13038 0.89058,-0.20209 0.3002,-0.0739 0.59688,-0.16065 0.89246,-0.25101 0.32253,-0.0984 0.64164,-0.20709 0.95952,-0.31941 0.31801,-0.11469 0.63394,-0.23499 0.94995,-0.35505 0.31219,-0.11902 0.62218,-0.2436 0.9321,-0.36836 0.32379,-0.13134 0.64631,-0.26574 0.96807,-0.40198 0.32145,-0.13685 0.64386,-0.2714 0.96615,-0.40627 0.27321,-0.11406 0.54666,-0.22752 0.81811,-0.34575 0.24259,-0.1052 0.48163,-0.21805 0.71844,-0.33561 0.27059,-0.13565 0.53709,-0.27926 0.8027,-0.42436 0.28197,-0.1567 0.56581,-0.31003 0.84796,-0.46639 0.23433,-0.12799 0.46488,-0.26256 0.6924,-0.40225 0.23966,-0.15023 0.47549,-0.30657 0.70987,-0.46488 0.26121,-0.17592 0.52252,-0.3517 0.78381,-0.52751 0.21034,-0.14536 0.422,-0.28894 0.62964,-0.43817 0.18554,-0.13164 0.36683,-0.26915 0.5463,-0.40893 0.18913,-0.14791 0.37598,-0.29872 0.56242,-0.45 0.18365,-0.14927 0.36709,-0.2988 0.55055,-0.44829 0.16378,-0.13346 0.32756,-0.26692 0.49134,-0.40039 0.15095,-0.12283 0.29991,-0.24806 0.45035,-0.3715 0.14652,-0.12387 0.29517,-0.24517 0.44391,-0.36635 0.13333,-0.10852 0.26675,-0.21693 0.40016,-0.32536 0.1003,-0.0799 0.19869,-0.16193 0.296,-0.24538 0.10094,-0.0868 0.20166,-0.1739 0.3024,-0.26094 0.0716,-0.0614 0.14506,-0.12049 0.21852,-0.17959 0,0 3.50024,4.35767 3.50024,4.35767 l 0,0 c -0.0216,0.0173 -0.0429,0.035 -0.065,0.0516 -0.10654,0.092 -0.21305,0.18406 -0.31982,0.2758 -0.13419,0.11488 -0.26975,0.22809 -0.4077,0.33845 -0.13176,0.10703 -0.26352,0.21406 -0.39521,0.32118 -0.14496,0.11804 -0.28959,0.23646 -0.43251,0.35696 -0.1544,0.12602 -0.30632,0.25506 -0.4613,0.38039 -0.16387,0.13347 -0.32774,0.26694 -0.49161,0.40041 -0.18647,0.15186 -0.37291,0.30376 -0.55956,0.45541 -0.2165,0.17558 -0.43354,0.35053 -0.65327,0.52206 -0.2385,0.18516 -0.47911,0.36768 -0.72537,0.54244 -0.25171,0.17949 -0.5063,0.35491 -0.76148,0.52941 -0.2598,0.17471 -0.51961,0.34939 -0.77929,0.52427 -0.30193,0.20324 -0.60518,0.40473 -0.91453,0.59656 -0.29784,0.18213 -0.59893,0.35881 -0.90531,0.52626 -0.29172,0.16128 -0.58478,0.32015 -0.87631,0.48179 -0.33106,0.18063 -0.66335,0.35917 -1.00084,0.52757 -0.31934,0.15782 -0.64131,0.31015 -0.96818,0.45185 -0.2958,0.12862 -0.59346,0.25281 -0.89125,0.37676 -0.31507,0.13175 -0.63028,0.2632 -0.94452,0.39694 -0.35211,0.14901 -0.70505,0.29603 -1.05937,0.43971 -0.34405,0.13853 -0.68828,0.27659 -1.03488,0.40864 -0.35701,0.13556 -0.714,0.27123 -1.07348,0.40014 -0.39401,0.13907 -0.78979,0.27305 -1.18947,0.39506 -0.39964,0.12175 -0.801,0.23788 -1.20691,0.33716 -0.36599,0.0887 -0.73282,0.17385 -1.10185,0.24907 -0.33806,0.0682 -0.67682,0.1327 -1.01529,0.19876 -0.36159,0.0703 -0.72363,0.13814 -1.08585,0.20516 -0.33097,0.0635 -0.66159,0.12892 -0.99023,0.20366 -0.32365,0.0728 -0.64728,0.14573 -0.97155,0.21566 -0.28954,0.0633 -0.57961,0.12418 -0.86874,0.18935 -0.28077,0.0636 -0.56099,0.12961 -0.84127,0.19531 -0.28067,0.0668 -0.56136,0.13396 -0.84409,0.19159 0,0 -1.08087,-5.48296 -1.08087,-5.48296 z"
         inkscape:connector-curvature="0" />
      <path
         style="color:#000000;display:inline;overflow:visible;visibility:visible;fill:#ffff00;fill-opacity:1;fill-rule:nonzero;stroke:none;stroke-width:3.4569838;marker:none;enable-background:accumulate"
         id="path6328"
         d="m -258.89516,696.36976 c 0.21405,-0.0133 0.4281,-0.0265 0.64219,-0.0391 0.27366,-0.0155 0.54764,-0.0201 0.82167,-0.0174 0.33845,10e-4 0.67508,0.037 1.01013,0.0817 0.36265,0.0514 0.72215,0.12207 1.08059,0.19681 0.35984,0.0737 0.71649,0.16165 1.07288,0.25022 0.31515,0.0771 0.62847,0.16138 0.94225,0.24379 0.28884,0.0752 0.57754,0.15102 0.86593,0.22794 0.31107,0.0831 0.62178,0.16751 0.93178,0.25451 0.34498,0.095 0.68672,0.20101 1.02651,0.313 0.31843,0.10502 0.63265,0.22213 0.94758,0.33706 0.28766,0.10644 0.5748,0.21427 0.86224,0.32132 0.29856,0.11249 0.5959,0.22826 0.89215,0.3467 0.27429,0.10945 0.54798,0.22032 0.82085,0.33326 0.24461,0.0992 0.48831,0.20052 0.73231,0.30118 0.24674,0.10116 0.49194,0.20604 0.73706,0.31106 0.23831,0.10391 0.47611,0.20897 0.71417,0.31346 0.24021,0.10851 0.48024,0.21738 0.71936,0.32827 0.20935,0.0961 0.41844,0.19284 0.62811,0.28826 0.22582,0.104 0.45082,0.20972 0.67515,0.3169 0.22253,0.10719 0.44326,0.21799 0.66282,0.33111 0.1845,0.0943 0.36751,0.19153 0.55167,0.28651 0.20651,0.10666 0.41067,0.21774 0.61401,0.3303 0.1994,0.11062 0.39645,0.22535 0.59276,0.34134 0.18235,0.10827 0.36312,0.21915 0.54357,0.33054 0.16761,0.10264 0.33499,0.20572 0.50151,0.31013 0.16345,0.10132 0.32581,0.20434 0.48748,0.30849 0.15233,0.0989 0.30342,0.19979 0.45506,0.2998 0.12936,0.0853 0.25874,0.17054 0.38812,0.25579 0.12563,0.0822 0.25024,0.16594 0.37483,0.24971 0.10749,0.0723 0.21494,0.14467 0.3224,0.21702 0.0946,0.0637 0.18927,0.12743 0.2839,0.19115 0.0837,0.0563 0.16733,0.11267 0.25099,0.169 0.0568,0.0361 0.1135,0.0723 0.17029,0.10835 0.13103,0.0794 0.25519,0.16872 0.37833,0.25971 0,0 -3.40287,4.43437 -3.40287,4.43437 l 0,0 c 0.1178,0.084 0.16972,0.11383 0.0277,0.0242 -0.099,-0.0629 -0.1982,-0.12557 -0.29587,-0.19056 -0.0837,-0.0564 -0.1673,-0.11271 -0.25095,-0.16906 -0.0946,-0.0637 -0.18919,-0.12745 -0.28379,-0.19118 -0.10639,-0.0717 -0.21278,-0.14335 -0.3192,-0.21498 -0.11028,-0.0742 -0.22055,-0.14838 -0.33179,-0.22111 -0.12991,-0.0857 -0.25982,-0.17131 -0.38972,-0.25699 -0.13496,-0.089 -0.26943,-0.17884 -0.40485,-0.26715 -0.14513,-0.0936 -0.29098,-0.18591 -0.43774,-0.27687 -0.15318,-0.095 -0.30581,-0.19092 -0.46,-0.28427 -0.14986,-0.0926 -0.29993,-0.18478 -0.45131,-0.27485 -0.15127,-0.0895 -0.30295,-0.17819 -0.45663,-0.26347 -0.15529,-0.0861 -0.31111,-0.17114 -0.46883,-0.25267 -0.18324,-0.0946 -0.36544,-0.19112 -0.54895,-0.28516 -0.16996,-0.0876 -0.34068,-0.17363 -0.51287,-0.25677 -0.19357,-0.0925 -0.3877,-0.18386 -0.58253,-0.27372 -0.22097,-0.10077 -0.44152,-0.20247 -0.66216,-0.30396 -0.20445,-0.0948 -0.40973,-0.18777 -0.61484,-0.28114 -0.22275,-0.0978 -0.44533,-0.19606 -0.66822,-0.29356 -0.22227,-0.0952 -0.44455,-0.1905 -0.66831,-0.28218 -0.24593,-0.10154 -0.49162,-0.20362 -0.73814,-0.30369 -0.25325,-0.1049 -0.50729,-0.20779 -0.76189,-0.30935 -0.25349,-0.10197 -0.50849,-0.20024 -0.76395,-0.29718 -0.27594,-0.10281 -0.55163,-0.20627 -0.82773,-0.30862 -0.26153,-0.0955 -0.52228,-0.19332 -0.78654,-0.28112 -0.25893,-0.0862 -0.51992,-0.16606 -0.78301,-0.23857 -0.28649,-0.0806 -0.57385,-0.15819 -0.86136,-0.23511 -0.2813,-0.0752 -0.56302,-0.14879 -0.84476,-0.22233 -0.28996,-0.0762 -0.57944,-0.15439 -0.87068,-0.22565 -0.28839,-0.0718 -0.5768,-0.14394 -0.86804,-0.20337 -0.22872,-0.048 -0.45798,-0.094 -0.68912,-0.12891 -0.10966,-0.0155 -0.21971,-0.0318 -0.33077,-0.031 -0.14021,-9.3e-4 -0.28033,1.7e-4 -0.4204,0.008 -0.22199,0.0131 -0.44393,0.027 -0.6659,0.0402 0,0 -0.30468,-5.58019 -0.30468,-5.58019 z"
         inkscape:connector-curvature="0" />
    </g>
    <path
       d="m -357.03475,654.84512 c -0.12152,-0.032 -0.2448,-0.0566 -0.36813,-0.0804 -0.18725,-0.0343 -0.37531,-0.0638 -0.56366,-0.0913 -0.23951,-0.0356 -0.48059,-0.0586 -0.72163,-0.0809 -0.30866,-0.0259 -0.61788,-0.0446 -0.92707,-0.0628 -0.36451,-0.0211 -0.72919,-0.0389 -1.0939,-0.0561 -0.38651,-0.0188 -0.77322,-0.0329 -1.16007,-0.0422 -0.40943,-0.0105 -0.81905,-0.007 -1.22851,-3.5e-4 -0.45204,0.008 -0.90386,0.0241 -1.35555,0.0429 -0.49241,0.0205 -0.98458,0.0462 -1.47665,0.0738 -0.5233,0.028 -1.04615,0.0631 -1.56868,0.10287 -0.56578,0.0433 -1.13037,0.10032 -1.69461,0.16019 -0.62722,0.0673 -1.25343,0.14355 -1.87939,0.22153 -0.6689,0.0843 -1.33712,0.17389 -2.00506,0.26548 -0.67159,0.0916 -1.34255,0.18759 -2.01312,0.28634 -0.66432,0.0962 -1.32741,0.20051 -1.98984,0.30892 -0.6748,0.11056 -1.34746,0.23354 -2.01949,0.35973 -0.6827,0.12983 -1.36488,0.26231 -2.04684,0.39595 -0.66745,0.13092 -1.33508,0.26091 -2.00225,0.39323 -0.66216,0.13015 -1.32185,0.27212 -1.97944,0.42354 -0.69576,0.16157 -1.38573,0.34654 -2.07428,0.5361 -0.71218,0.19784 -1.42162,0.4053 -2.13061,0.6142 -0.6897,0.2032 -1.37823,0.41028 -2.06562,0.62116 -0.68184,0.20774 -1.35817,0.43266 -2.03188,0.66523 -0.68205,0.23822 -1.35959,0.4891 -2.03705,0.73998 -0.64172,0.2388 -1.28474,0.47408 -1.92765,0.70965 -0.60898,0.22083 -1.21695,0.44445 -1.82298,0.67324 -0.60165,0.22636 -1.19606,0.4711 -1.78769,0.72228 -0.59587,0.25585 -1.18829,0.51964 -1.78104,0.78262 -0.55898,0.24834 -1.11753,0.4976 -1.67641,0.74613 -0.52391,0.23256 -1.04497,0.47141 -1.56351,0.71571 -0.51429,0.24263 -1.02164,0.4995 -1.52786,0.75842 -0.49424,0.25413 -0.9875,0.51013 -1.48086,0.76595 -0.45621,0.23685 -0.91365,0.47131 -1.36944,0.70895 -0.43661,0.22658 -0.86811,0.4627 -1.29722,0.7031 -0.43833,0.24674 -0.87229,0.50109 -1.30736,0.75349 -0.40719,0.23792 -0.81454,0.47554 -1.22277,0.71165 -0.37204,0.21569 -0.74466,0.43039 -1.11605,0.64722 -0.35492,0.2073 -0.70694,0.41952 -1.05854,0.63238 -0.35678,0.2168 -0.71315,0.43426 -1.07003,0.6509 -0.36054,0.21934 -0.72205,0.43708 -1.08341,0.65506 -0.34488,0.20656 -0.68802,0.416 -1.03217,0.62379 -0.31203,0.18928 -0.62278,0.38066 -0.93451,0.57044 -0.28094,0.17061 -0.56219,0.34071 -0.84339,0.51089 -0.24792,0.15002 -0.49585,0.30002 -0.74377,0.45004 -0.2192,0.13262 -0.43839,0.26525 -0.65759,0.39788 -0.19381,0.11727 -0.38762,0.23454 -0.58143,0.35181 -0.17136,0.10368 -0.34272,0.20737 -0.51409,0.31106 -0.14893,0.0905 -0.29859,0.17985 -0.44707,0.27112 -0.0564,0.0339 -0.11083,0.0707 -0.16494,0.1081 0,0 -1.61991,-2.37404 -1.61991,-2.37404 l 0,0 c 0.0925,-0.0628 0.18519,-0.12543 0.28094,-0.18331 0.15398,-0.0945 0.30896,-0.18731 0.46342,-0.28097 0.17139,-0.10366 0.34278,-0.20731 0.51416,-0.31096 0.19384,-0.11722 0.38768,-0.23444 0.58151,-0.35167 0.21922,-0.13258 0.43845,-0.26516 0.65767,-0.39774 0.24791,-0.14993 0.49583,-0.29986 0.74374,-0.4498 0.27906,-0.16879 0.55816,-0.33751 0.83695,-0.50673 0.31476,-0.19153 0.62851,-0.38472 0.94359,-0.57571 0.34446,-0.20788 0.6879,-0.41747 1.03308,-0.62415 0.35905,-0.21656 0.71825,-0.43289 1.07646,-0.65085 0.35786,-0.21725 0.71522,-0.43533 1.073,-0.65272 0.36472,-0.22078 0.72988,-0.44085 1.09804,-0.65583 0.37483,-0.21878 0.75087,-0.43545 1.12639,-0.65306 0.40717,-0.23538 0.81344,-0.47232 1.21957,-0.7095 0.44752,-0.25953 0.89392,-0.52106 1.34481,-0.77475 0.45423,-0.25439 0.91096,-0.50436 1.37309,-0.74417 0.45776,-0.23861 0.91713,-0.47408 1.37534,-0.71181 0.4981,-0.25818 0.99611,-0.51652 1.49508,-0.77301 0.53396,-0.27305 1.06921,-0.54374 1.61169,-0.79959 0.53748,-0.25315 1.07751,-0.5008 1.62057,-0.74176 0.55969,-0.24882 1.11907,-0.49837 1.67886,-0.74696 0.60687,-0.26914 1.2134,-0.5391 1.82349,-0.80087 0.62733,-0.2662 1.25759,-0.52558 1.89549,-0.76559 0.61479,-0.23205 1.23148,-0.45903 1.84929,-0.68295 0.63985,-0.23438 1.27983,-0.46844 1.91852,-0.70598 0.69747,-0.25819 1.39504,-0.5163 2.09725,-0.76138 0.70512,-0.24334 1.41297,-0.47878 2.12657,-0.69622 0.69761,-0.21398 1.39636,-0.42413 2.09633,-0.63027 0.72541,-0.21367 1.4513,-0.42584 2.17996,-0.62821 0.72764,-0.20027 1.45683,-0.39548 2.1921,-0.56608 0.68606,-0.15791 1.37423,-0.30632 2.06505,-0.44205 0.66932,-0.13273 1.33911,-0.26314 2.00872,-0.39443 0.68936,-0.13504 1.37895,-0.26894 2.06905,-0.40015 0.69402,-0.13031 1.3887,-0.25727 2.08559,-0.37145 0.67758,-0.11089 1.35584,-0.21761 2.03536,-0.31601 0.67998,-0.10009 1.36035,-0.19749 2.04136,-0.29034 0.67957,-0.0932 1.35942,-0.18434 2.03996,-0.27016 0.64326,-0.0802 1.28678,-0.15857 1.93132,-0.22782 0.59257,-0.0629 1.18552,-0.12271 1.77973,-0.16823 0.54165,-0.0412 1.08363,-0.0778 1.62609,-0.10687 0.50575,-0.0284 1.01162,-0.0549 1.51773,-0.076 0.47593,-0.0198 0.952,-0.0373 1.4283,-0.0452 0.44817,-0.007 0.89649,-0.0109 1.34463,5.8e-4 0.40867,0.01 0.81723,0.0244 1.22555,0.0444 0.37597,0.0177 0.75191,0.036 1.12767,0.0577 0.34096,0.02 0.68193,0.0406 1.02226,0.0697 0.2917,0.0269 0.58335,0.0555 0.87319,0.0986 0.23223,0.034 0.46414,0.0704 0.69491,0.11326 0.18074,0.0351 0.36125,0.0719 0.53934,0.11889 0,0 -0.71775,2.78317 -0.71775,2.78317 z"
       id="path6341"
       style="color:#000000;display:inline;overflow:visible;visibility:visible;fill:#013397;fill-opacity:1;fill-rule:nonzero;stroke:none;stroke-width:3.4569838;marker:none;enable-background:accumulate"
       inkscape:connector-curvature="0" />
    <path
       d="m -420.99646,668.25577 c -0.0543,0.0714 -0.10745,0.14358 -0.15989,0.2163 -0.0538,0.0745 -0.10439,0.15125 -0.15601,0.22727 -0.052,0.0758 -0.10141,0.15331 -0.15091,0.23076 -0.0606,0.0963 -0.11904,0.19409 -0.17795,0.2915 -0.0688,0.11644 -0.13975,0.23164 -0.20894,0.34786 -0.0737,0.12218 -0.14682,0.24471 -0.22097,0.36662 -0.0763,0.12694 -0.15366,0.25329 -0.23203,0.379 -0.0909,0.14561 -0.18408,0.28978 -0.27779,0.43359 -0.0981,0.15056 -0.1965,0.30092 -0.29617,0.45044 -0.0953,0.14307 -0.19206,0.28507 -0.28872,0.42718 -0.10637,0.15536 -0.2167,0.30793 -0.3276,0.46006 -0.11379,0.15354 -0.22888,0.3061 -0.3453,0.45766 -0.10988,0.1434 -0.22313,0.28416 -0.33506,0.42594 -0.10628,0.13318 -0.21341,0.26566 -0.32005,0.39855 -0.10503,0.12925 -0.20875,0.25956 -0.3133,0.38919 -0.0997,0.12275 -0.19998,0.24499 -0.30021,0.36729 -0.10318,0.12422 -0.20783,0.24723 -0.3148,0.36821 -0.0974,0.10956 -0.19559,0.21846 -0.29303,0.328 -0.09,0.10134 -0.1798,0.20281 -0.26964,0.30425 -0.0802,0.0905 -0.16037,0.18108 -0.24055,0.27162 -0.0746,0.0844 -0.14937,0.16861 -0.22441,0.2526 -0.0818,0.0909 -0.16473,0.18087 -0.24758,0.27086 -0.0756,0.0821 -0.15134,0.16428 -0.22702,0.24641 -0.067,0.0727 -0.13403,0.14546 -0.20105,0.21819 -0.0593,0.0643 -0.11852,0.12861 -0.17778,0.19292 -0.0524,0.0569 -0.10479,0.11372 -0.15719,0.17057 -0.0463,0.0503 -0.0926,0.10055 -0.13897,0.15083 -0.041,0.0444 -0.0819,0.0889 -0.12289,0.13336 -0.0362,0.0393 -0.0724,0.0786 -0.10865,0.11791 -0.0197,0.0213 -0.0394,0.0426 -0.0591,0.0639 0.16083,-0.17967 0.22691,-0.40376 0.28133,-0.6332 0.0748,-0.59187 -0.20011,-1.08264 -0.68633,-1.4004 -0.14766,-0.0817 -0.30539,-0.13007 -0.47209,-0.14791 0.0628,5.8e-4 0.1257,10e-4 0.18855,0.002 0.0577,-5.7e-4 0.11508,-0.006 0.17249,-0.0114 0.0994,-0.012 0.19845,-0.0272 0.29716,-0.044 0.1292,-0.0224 0.25826,-0.0457 0.38733,-0.0688 0.13124,-0.024 0.26268,-0.0468 0.39435,-0.0682 0.13988,-0.0235 0.2798,-0.0468 0.41988,-0.0691 0.16971,-0.0264 0.33932,-0.0535 0.50923,-0.0787 0.17644,-0.0259 0.3531,-0.0502 0.5298,-0.0742 0.1592,-0.023 0.31836,-0.0461 0.47733,-0.0706 0.1783,-0.0285 0.35615,-0.0596 0.53432,-0.0889 0.19793,-0.032 0.39573,-0.0648 0.59377,-0.0961 0.19234,-0.0309 0.38522,-0.0584 0.5777,-0.0884 0.17771,-0.0282 0.35545,-0.0561 0.53296,-0.0855 0.17429,-0.0295 0.3487,-0.0585 0.52267,-0.0899 0.18014,-0.0324 0.36017,-0.0655 0.5401,-0.0991 0.17881,-0.0331 0.3577,-0.0658 0.53668,-0.098 0.16282,-0.0309 0.32555,-0.0624 0.48855,-0.0924 0.17039,-0.0315 0.34124,-0.0606 0.51222,-0.0888 0.15551,-0.0253 0.31068,-0.0527 0.46596,-0.0794 0.14857,-0.0253 0.2972,-0.0503 0.44582,-0.0754 0.13578,-0.0231 0.27162,-0.0458 0.4076,-0.0678 0.12357,-0.0216 0.24713,-0.0434 0.3708,-0.0644 0.11473,-0.021 0.22946,-0.0419 0.34392,-0.0644 0.11812,-0.0233 0.23568,-0.0494 0.35339,-0.0746 0.11591,-0.0249 0.23181,-0.0497 0.34771,-0.0746 0.10259,-0.022 0.20517,-0.044 0.30775,-0.066 0.0755,-0.0158 0.15012,-0.0352 0.22492,-0.0539 0.0796,-0.02 0.15918,-0.04 0.23877,-0.06 0.0821,-0.0208 0.16412,-0.0415 0.24654,-0.0609 0.0391,-0.007 0.0783,-0.0143 0.11743,-0.0215 0,0 0.45145,2.83904 0.45145,2.83904 l 0,0 c 0.0195,-0.004 0.0389,-0.008 0.0584,-0.0122 -0.0578,0.0144 -0.11563,0.0289 -0.17342,0.0435 -0.0808,0.0203 -0.16161,0.0406 -0.24242,0.0608 -0.10614,0.0265 -0.21222,0.0534 -0.31931,0.0757 -0.10259,0.022 -0.20518,0.044 -0.30776,0.0659 -0.11589,0.0248 -0.23177,0.0497 -0.34765,0.0745 -0.13458,0.0288 -0.269,0.0585 -0.40409,0.0849 -0.13757,0.0269 -0.27542,0.0523 -0.41337,0.0771 -0.13187,0.0225 -0.26355,0.0459 -0.39539,0.0685 -0.12923,0.0208 -0.25834,0.0425 -0.3874,0.0644 -0.14568,0.0245 -0.29138,0.0491 -0.43702,0.0739 -0.16158,0.0278 -0.32304,0.0562 -0.48485,0.0825 -0.15339,0.0253 -0.30666,0.0513 -0.45951,0.0796 -0.16687,0.0307 -0.3334,0.0632 -0.50016,0.0945 -0.1728,0.0311 -0.3455,0.0626 -0.51812,0.0946 -0.18643,0.0348 -0.37296,0.069 -0.55961,0.10263 -0.1868,0.0334 -0.37391,0.0651 -0.56104,0.0966 -0.18679,0.031 -0.37382,0.0604 -0.56082,0.09 -0.19015,0.0295 -0.38062,0.0569 -0.57064,0.0872 -0.19235,0.0304 -0.38445,0.0623 -0.57669,0.0934 -0.1878,0.0308 -0.37523,0.0639 -0.56323,0.0936 -0.17555,0.027 -0.35131,0.0527 -0.52714,0.0778 -0.16511,0.0225 -0.33017,0.0451 -0.49505,0.0692 -0.1598,0.0237 -0.31932,0.0492 -0.47895,0.0741 -0.13692,0.0218 -0.27365,0.0448 -0.41039,0.0678 -0.11651,0.0189 -0.23278,0.0393 -0.34892,0.0604 -0.13948,0.025 -0.27893,0.0501 -0.41857,0.0742 -0.17157,0.0285 -0.34358,0.0552 -0.51672,0.0724 -0.148,0.0132 -0.29633,0.0235 -0.44501,0.023 -0.0874,-4.7e-4 -0.17477,-5.8e-4 -0.26213,-0.003 -0.2809,-0.0107 -0.5545,-0.0625 -0.80543,-0.19654 -0.54832,-0.34763 -0.86959,-0.87925 -0.79079,-1.54528 0.068,-0.30039 0.16504,-0.58621 0.37764,-0.81754 0.0429,-0.0488 0.0863,-0.0972 0.13081,-0.14459 0.0362,-0.0393 0.0725,-0.0786 0.10867,-0.11789 0.041,-0.0444 0.082,-0.0889 0.12292,-0.13333 0.0464,-0.0503 0.0927,-0.10053 0.13902,-0.15079 0.0524,-0.0569 0.10481,-0.1137 0.15722,-0.17055 0.0593,-0.0643 0.11854,-0.12859 0.17781,-0.19288 0.067,-0.0727 0.13406,-0.14541 0.20108,-0.21812 0.0754,-0.0817 0.15071,-0.16347 0.22603,-0.24524 0.0732,-0.0795 0.14642,-0.15889 0.21875,-0.23914 0.0723,-0.0809 0.1443,-0.16205 0.21619,-0.24331 0.0802,-0.0906 0.16045,-0.1811 0.24067,-0.27165 0.0912,-0.10295 0.18241,-0.2059 0.27374,-0.30873 0.0963,-0.10822 0.19326,-0.21583 0.28952,-0.32407 0.0828,-0.093 0.16282,-0.18844 0.24288,-0.28381 0.0957,-0.11671 0.19146,-0.23337 0.28665,-0.35048 0.10298,-0.12743 0.2048,-0.2558 0.30822,-0.38287 0.10201,-0.1271 0.20443,-0.25386 0.30622,-0.38113 0.10405,-0.13166 0.20924,-0.26244 0.31144,-0.39556 0.10173,-0.13233 0.20218,-0.26563 0.30181,-0.39955 0.0926,-0.12702 0.18486,-0.25429 0.27385,-0.38387 0.0919,-0.13496 0.18381,-0.26982 0.27429,-0.40571 0.094,-0.14069 0.18642,-0.28244 0.27885,-0.42418 0.0832,-0.12768 0.16593,-0.2557 0.24665,-0.38497 0.0728,-0.11681 0.14456,-0.23426 0.21548,-0.35222 0.0698,-0.11468 0.13851,-0.22996 0.20788,-0.34488 0.0724,-0.12135 0.14621,-0.2419 0.21828,-0.36347 0.0711,-0.11756 0.14164,-0.23551 0.21518,-0.35158 0.0644,-0.10084 0.12911,-0.20148 0.19667,-0.30026 0.062,-0.0908 0.12246,-0.18278 0.18699,-0.27188 0.0704,-0.0987 0.1427,-0.19609 0.21612,-0.2926 0,0 2.28923,1.73808 2.28923,1.73808 z"
       id="path6343"
       style="color:#000000;display:inline;overflow:visible;visibility:visible;fill:#013397;fill-opacity:1;fill-rule:nonzero;stroke:none;stroke-width:3.4569838;marker:none;enable-background:accumulate"
       inkscape:connector-curvature="0" />
    <path
       d="m -262.97372,650.57454 c 0.13982,0.009 0.27989,0.0142 0.41986,0.0207 0.21055,0.0104 0.4212,0.0185 0.63187,0.0259 0.27242,0.007 0.54491,0.0113 0.81738,0.0154 0.33438,0.003 0.66865,0.0138 1.00282,0.0262 0.37965,0.0149 0.75928,0.03 1.13909,0.0399 0.45424,0.0111 0.90861,0.008 1.3629,0.003 0.54512,-0.01 1.09024,-0.009 1.63535,-2.5e-4 0.58227,0.0115 1.16413,0.0377 1.74588,0.0648 0.61819,0.0305 1.23631,0.0626 1.85432,0.0968 0.67074,0.0354 1.341,0.0794 2.011,0.12708 0.68908,0.0504 1.37774,0.10684 2.06615,0.16615 0.69301,0.0588 1.38538,0.12495 2.07738,0.1951 0.71937,0.0733 1.43779,0.15594 2.15594,0.24078 0.74812,0.0889 1.49559,0.18339 2.24278,0.28012 0.7499,0.0967 1.49858,0.20281 2.24636,0.31537 0.74248,0.11165 1.4822,0.24115 2.22056,0.37829 0.75099,0.14048 1.49833,0.30026 2.24417,0.46682 0.74608,0.16721 1.48837,0.35134 2.2291,0.54173 0.71516,0.18457 1.42677,0.38309 2.13719,0.5859 0.68978,0.19704 1.37647,0.40511 2.06144,0.61898 0.67947,0.21228 1.35337,0.44251 2.02531,0.67849 0.6499,0.22986 1.29601,0.47075 1.9416,0.71299 0.61944,0.23295 1.23776,0.46901 1.85559,0.70642 0.59724,0.22936 1.19276,0.46337 1.78755,0.69933 0.57244,0.22733 1.14299,0.45961 1.71282,0.69373 0.5461,0.22496 1.09073,0.45367 1.63514,0.68287 0.52442,0.22077 1.04822,0.44308 1.57173,0.66609 0.51242,0.21815 1.02336,0.43993 1.53311,0.66458 0.49379,0.21771 0.98497,0.44155 1.47499,0.66802 0.46691,0.21566 0.93113,0.43737 1.39423,0.6615 0.44795,0.21696 0.89239,0.44137 1.33513,0.66928 0.43286,0.22324 0.86157,0.45479 1.28867,0.68937 0.4187,0.23046 0.83368,0.46789 1.24669,0.70888 0.40677,0.23724 0.80892,0.48261 1.20834,0.73258 0.39582,0.24799 0.785,0.50684 1.17202,0.76896 0.3709,0.25202 0.73785,0.51009 1.1043,0.76886 0.34958,0.24698 0.69813,0.49549 1.04652,0.74422 0.34707,0.2472 0.69105,0.49889 1.03294,0.75354 0.3386,0.25313 0.67345,0.51145 1.00815,0.76997 0.31775,0.24526 0.63554,0.49047 0.95358,0.73533 0.31229,0.24076 0.62184,0.48521 0.92966,0.73194 0.30878,0.24793 0.6133,0.50134 0.91695,0.75582 0.30213,0.25389 0.60266,0.50978 0.90309,0.76578 0.29793,0.25397 0.59549,0.50841 0.89182,0.76435 0.29766,0.25742 0.59272,0.51797 0.88684,0.77963 0.29319,0.26098 0.58463,0.52403 0.87589,0.78727 0.29079,0.26312 0.58118,0.52671 0.87202,0.78977 0.28563,0.25847 0.57258,0.51539 0.8594,0.77248 0.27753,0.24784 0.55264,0.49851 0.82754,0.7494 0.25954,0.2382 0.5196,0.47581 0.77925,0.71389 0.24011,0.22049 0.48125,0.43981 0.72312,0.65828 0.22192,0.1991 0.44307,0.3991 0.66475,0.59849 0.19716,0.17804 0.39589,0.35423 0.59463,0.53041 0.18343,0.16205 0.36483,0.32651 0.54648,0.49065 0.1583,0.14308 0.31657,0.28621 0.47483,0.42933 0.11771,0.10644 0.23542,0.21289 0.35313,0.31933 0,0 -1.8528,2.15578 -1.8528,2.15578 l 0,0 c -0.11768,-0.10647 -0.23536,-0.21293 -0.35304,-0.31939 -0.15797,-0.14292 -0.31594,-0.28584 -0.47395,-0.42873 -0.17497,-0.15817 -0.34968,-0.31668 -0.52637,-0.47285 -0.20378,-0.18071 -0.40753,-0.36146 -0.6097,-0.54407 -0.22316,-0.2008 -0.44579,-0.4022 -0.66919,-0.60272 -0.24697,-0.2232 -0.49326,-0.44721 -0.73847,-0.67244 -0.25799,-0.23662 -0.5164,-0.47274 -0.77429,-0.70946 -0.26863,-0.24522 -0.53744,-0.49024 -0.80864,-0.73247 -0.28991,-0.25989 -0.57995,-0.51965 -0.86868,-0.78092 -0.29059,-0.26282 -0.58072,-0.52617 -0.87126,-0.78906 -0.28581,-0.25831 -0.57178,-0.51644 -0.85948,-0.77253 -0.28381,-0.25251 -0.56855,-0.50395 -0.85576,-0.75238 -0.29154,-0.25184 -0.58433,-0.50215 -0.87744,-0.75205 -0.29457,-0.25101 -0.58923,-0.50191 -0.88546,-0.75087 -0.28798,-0.24135 -0.57675,-0.48174 -0.86956,-0.71693 -0.29351,-0.23532 -0.58871,-0.46843 -0.88647,-0.69807 -0.31911,-0.24576 -0.63799,-0.49182 -0.95681,-0.73797 -0.32177,-0.24854 -0.64365,-0.49697 -0.96914,-0.74039 -0.32673,-0.24342 -0.65551,-0.48393 -0.9872,-0.72021 -0.34447,-0.24596 -0.68909,-0.4917 -1.03473,-0.73593 -0.3516,-0.24832 -0.70363,-0.49604 -1.05947,-0.73794 -0.35916,-0.24337 -0.72028,-0.48378 -1.08762,-0.71402 -0.37492,-0.23479 -0.75249,-0.4651 -1.13433,-0.68788 -0.39219,-0.22895 -0.7863,-0.45444 -1.1839,-0.67339 -0.40528,-0.22268 -0.81209,-0.44247 -1.22284,-0.6544 -0.42244,-0.21754 -0.84652,-0.43172 -1.27393,-0.63882 -0.4483,-0.21703 -0.89768,-0.43173 -1.34967,-0.64056 -0.47505,-0.21963 -0.95122,-0.4367 -1.42993,-0.64782 -0.49928,-0.2201 -0.99975,-0.43732 -1.50165,-0.65104 -0.51994,-0.22152 -1.04016,-0.44234 -1.561,-0.66164 -0.53706,-0.22616 -1.07433,-0.45184 -1.61305,-0.67382 -0.55947,-0.22992 -1.11965,-0.45804 -1.68168,-0.68129 -0.58552,-0.23235 -1.17178,-0.46277 -1.75972,-0.68861 -0.61105,-0.23485 -1.22259,-0.46837 -1.83523,-0.69881 -0.62737,-0.23546 -1.25522,-0.46968 -1.88675,-0.69318 -0.64153,-0.22541 -1.28492,-0.44539 -1.93364,-0.64816 -0.66352,-0.20724 -1.32872,-0.40882 -1.9969,-0.59976 -0.68711,-0.19625 -1.37537,-0.3884 -2.06707,-0.56704 -0.71249,-0.18325 -1.42648,-0.36048 -2.14412,-0.52138 -0.71372,-0.15947 -1.42887,-0.31244 -2.14752,-0.44696 -0.70766,-0.13152 -1.41663,-0.25569 -2.12825,-0.36278 -0.72912,-0.10984 -1.45914,-0.2133 -2.19034,-0.3076 -0.73708,-0.0954 -1.47444,-0.18866 -2.21245,-0.27626 -0.70321,-0.083 -1.40668,-0.16389 -2.11108,-0.23565 -0.67836,-0.0688 -1.35709,-0.13362 -2.03645,-0.19122 -0.67494,-0.0582 -1.35013,-0.11348 -2.02574,-0.16292 -0.65558,-0.0467 -1.31141,-0.0896 -1.96772,-0.12413 -0.60993,-0.0337 -1.21997,-0.0652 -1.83008,-0.0953 -0.55425,-0.0256 -1.1086,-0.0508 -1.66335,-0.062 -0.52146,-0.008 -1.04293,-0.009 -1.5644,5.8e-4 -0.487,0.005 -0.97409,0.008 -1.46103,-0.003 -0.38997,-0.0102 -0.77979,-0.0252 -1.1696,-0.0404 -0.31405,-0.0117 -0.6282,-0.0211 -0.94246,-0.0244 -0.29042,-0.005 -0.58086,-0.008 -0.87122,-0.0165 -0.22095,-0.008 -0.44188,-0.016 -0.66271,-0.0267 -0.16158,-0.007 -0.32328,-0.0128 -0.48466,-0.0243 0,0 0.19065,-2.86754 0.19065,-2.86754 z"
       id="path6355"
       style="color:#000000;display:inline;overflow:visible;visibility:visible;fill:#013397;fill-opacity:1;fill-rule:nonzero;stroke:none;stroke-width:3.4569838;marker:none;enable-background:accumulate"
       inkscape:connector-curvature="0" />
    <path
       d="m -201.64222,674.29629 c 0.14093,0.023 0.281,0.0509 0.4205,0.0813 0.16031,0.0351 0.31871,0.0782 0.47664,0.12266 0.16216,0.0462 0.32436,0.0924 0.48665,0.13815 0.18819,0.0525 0.3766,0.10427 0.56448,0.15791 0.21677,0.061 0.43173,0.12816 0.64584,0.19787 0.21725,0.0706 0.43354,0.14421 0.64972,0.21806 0.21913,0.0744 0.43832,0.14872 0.6572,0.22389 0.22713,0.0773 0.45331,0.15746 0.67883,0.23941 0.21927,0.0791 0.4373,0.16152 0.6557,0.24297 0.20409,0.0777 0.40816,0.15548 0.61263,0.23219 0.19228,0.0742 0.38496,0.14749 0.57701,0.22234 0.18075,0.07 0.36073,0.14204 0.54143,0.21218 0.18249,0.0722 0.36568,0.1427 0.54821,0.21483 0.16568,0.0653 0.33147,0.13029 0.49725,0.19533 0.15162,0.0588 0.30251,0.11944 0.45373,0.17925 0.15204,0.0609 0.30366,0.12282 0.45556,0.18406 0.15478,0.0612 0.30913,0.12357 0.46325,0.18644 0.14354,0.0585 0.28707,0.11708 0.43061,0.17563 0.13219,0.0522 0.26362,0.10635 0.3952,0.16009 0.13305,0.0551 0.26594,0.11069 0.39882,0.16626 0.13426,0.0561 0.26786,0.11362 0.40135,0.17146 0.12825,0.0543 0.25496,0.1121 0.38157,0.17009 0.10203,0.047 0.20477,0.0925 0.30739,0.13825 0.089,0.0388 0.17845,0.0768 0.26811,0.11423 0.0945,0.0386 0.18884,0.0776 0.28302,0.11694 0.0826,0.0346 0.16651,0.0661 0.24988,0.0988 0.0936,0.0368 0.18747,0.0728 0.28084,0.11014 0.0834,0.0337 0.16736,0.0663 0.25126,0.0989 0.0748,0.029 0.14956,0.0582 0.22472,0.0863 0.0819,0.0304 0.16296,0.0633 0.24426,0.0954 0.0854,0.0326 0.16947,0.0687 0.25358,0.10456 0.0586,0.0252 0.11762,0.0492 0.17658,0.0734 0,0 -1.09292,2.65882 -1.09292,2.65882 l 0,0 c -0.0705,-0.029 -0.14112,-0.0579 -0.21119,-0.088 -0.0568,-0.0242 -0.11327,-0.0491 -0.17101,-0.0709 -0.0691,-0.027 -0.13777,-0.0554 -0.20732,-0.0813 -0.0861,-0.0322 -0.17173,-0.0655 -0.25735,-0.0988 -0.0928,-0.0361 -0.18563,-0.0722 -0.27796,-0.10945 -0.0892,-0.0356 -0.17894,-0.0699 -0.26829,-0.10516 -0.10162,-0.0394 -0.20327,-0.0788 -0.30384,-0.12078 -0.0935,-0.0391 -0.18721,-0.0778 -0.28106,-0.11614 -0.1108,-0.0462 -0.22129,-0.0932 -0.33121,-0.14149 -0.11181,-0.0498 -0.22372,-0.0995 -0.33488,-0.15073 -0.10856,-0.0498 -0.21711,-0.0995 -0.32718,-0.14592 -0.12217,-0.0529 -0.24439,-0.10575 -0.36729,-0.15699 -0.12566,-0.0525 -0.25134,-0.10505 -0.37713,-0.15728 -0.13108,-0.0536 -0.26206,-0.1074 -0.39373,-0.15954 -0.14345,-0.0585 -0.28691,-0.1171 -0.43036,-0.17563 -0.15063,-0.0614 -0.30149,-0.12233 -0.45276,-0.18217 -0.14607,-0.0589 -0.29192,-0.11835 -0.43808,-0.17704 -0.14871,-0.0589 -0.29713,-0.11849 -0.44624,-0.17637 -0.16792,-0.0659 -0.33586,-0.13183 -0.5037,-0.19798 -0.17714,-0.0701 -0.35497,-0.13836 -0.53207,-0.20855 -0.18219,-0.0708 -0.36373,-0.14324 -0.54596,-0.21393 -0.18028,-0.0705 -0.36138,-0.1389 -0.54182,-0.20897 -0.20272,-0.0761 -0.40508,-0.1531 -0.60737,-0.2303 -0.21094,-0.0787 -0.42152,-0.15838 -0.63332,-0.23476 -0.20937,-0.0762 -0.41946,-0.15043 -0.63036,-0.22228 -0.21733,-0.0747 -0.43499,-0.14835 -0.65257,-0.22228 -0.20336,-0.0695 -0.40681,-0.1387 -0.61118,-0.20512 -0.18071,-0.0589 -0.36219,-0.11564 -0.54521,-0.16702 -0.18462,-0.0528 -0.36991,-0.10333 -0.55484,-0.15508 -0.16259,-0.0458 -0.32509,-0.092 -0.48757,-0.13823 -0.10461,-0.0297 -0.20956,-0.0586 -0.31577,-0.0821 -0.0901,-0.019 -0.18026,-0.0379 -0.27122,-0.0525 0,0 0.47094,-2.83543 0.47094,-2.83543 z"
       id="path6361"
       style="color:#000000;display:inline;overflow:visible;visibility:visible;fill:#013397;fill-opacity:1;fill-rule:nonzero;stroke:none;stroke-width:3.4569838;marker:none;enable-background:accumulate"
       inkscape:connector-curvature="0" />
    <path
       d="m -192.22792,667.35942 c 0.0157,0.11011 0.0287,0.22055 0.0454,0.33052 0.0154,0.10966 0.0376,0.2182 0.0593,0.32674 0.0291,0.13713 0.0628,0.27317 0.0965,0.40923 0.0434,0.17024 0.0858,0.34073 0.12916,0.51098 0.0456,0.18086 0.0924,0.36145 0.14002,0.5418 0.0465,0.18211 0.0978,0.36289 0.15207,0.54282 0.0572,0.19176 0.11944,0.38199 0.18278,0.57181 0.0677,0.20204 0.13633,0.40375 0.20421,0.60573 0.0668,0.20066 0.13357,0.40134 0.20113,0.60175 0.0633,0.18953 0.12909,0.37824 0.19582,0.56659 0.0639,0.18412 0.13223,0.36667 0.19973,0.54949 0.0664,0.17812 0.13397,0.35577 0.20137,0.5335 0.0643,0.16764 0.13042,0.33461 0.1973,0.50126 0.0646,0.16018 0.13272,0.31888 0.20141,0.47733 0.0698,0.15939 0.14211,0.31765 0.21433,0.47595 0.0755,0.1626 0.15095,0.32519 0.22676,0.48763 0.0741,0.15792 0.15055,0.3147 0.22793,0.47102 0.0781,0.15809 0.15833,0.31506 0.23918,0.47174 0.0809,0.15697 0.16282,0.31337 0.2445,0.46991 0.0755,0.14597 0.15091,0.29197 0.22762,0.43731 0.0691,0.13083 0.13841,0.26158 0.20827,0.39203 0.0646,0.12231 0.13124,0.24356 0.19694,0.36531 0.0614,0.11335 0.1233,0.22647 0.18479,0.3398 0.0559,0.10307 0.11181,0.20616 0.16771,0.30926 0.0494,0.091 0.0987,0.1821 0.1481,0.27315 0.042,0.0786 0.0837,0.1572 0.12699,0.23501 0.0408,0.073 0.0817,0.14581 0.12267,0.21867 0.008,0.0138 0.0163,0.0275 0.0245,0.0413 0,0 -2.47487,1.46233 -2.47487,1.46233 l 0,0 c -0.0358,-0.0607 -0.0171,-0.0288 -0.0559,-0.096 -0.0428,-0.0762 -0.0856,-0.15234 -0.12817,-0.22862 -0.0485,-0.0871 -0.0955,-0.17494 -0.1423,-0.26295 -0.0494,-0.0911 -0.0987,-0.18211 -0.14803,-0.27317 -0.0557,-0.10278 -0.1114,-0.20556 -0.16712,-0.30833 -0.0626,-0.11536 -0.12552,-0.23051 -0.18803,-0.3459 -0.0671,-0.1244 -0.13508,-0.24831 -0.20115,-0.37325 -0.0726,-0.13556 -0.14455,-0.27143 -0.21634,-0.40739 -0.0788,-0.14938 -0.15638,-0.29937 -0.23389,-0.44941 -0.0836,-0.16038 -0.16755,-0.32058 -0.25039,-0.48137 -0.0882,-0.17097 -0.17573,-0.34229 -0.26093,-0.51479 -0.087,-0.17594 -0.17303,-0.3524 -0.25635,-0.53015 -0.0793,-0.16998 -0.15835,-0.3401 -0.23723,-0.51028 -0.0798,-0.17488 -0.15959,-0.34976 -0.23654,-0.52591 -0.0791,-0.18257 -0.15744,-0.3655 -0.23176,-0.55008 -0.0737,-0.18366 -0.14645,-0.36767 -0.21724,-0.55245 -0.0704,-0.18561 -0.14092,-0.37114 -0.21018,-0.55716 -0.0719,-0.19477 -0.14452,-0.3893 -0.21269,-0.58541 -0.0716,-0.20216 -0.14211,-0.40469 -0.21012,-0.60808 -0.0678,-0.20126 -0.13488,-0.40279 -0.20198,-0.6043 -0.0686,-0.20416 -0.13798,-0.40803 -0.20638,-0.61225 -0.0721,-0.21634 -0.14288,-0.43315 -0.20814,-0.65167 -0.0637,-0.21158 -0.1242,-0.42409 -0.17908,-0.63814 -0.0497,-0.18837 -0.0986,-0.37694 -0.14632,-0.56583 -0.045,-0.17656 -0.089,-0.35334 -0.13398,-0.5299 -0.0441,-0.17787 -0.0878,-0.35586 -0.12489,-0.53534 -0.0311,-0.15498 -0.0616,-0.31017 -0.084,-0.46668 -0.0176,-0.1185 -0.033,-0.23727 -0.0489,-0.35599 0,0 2.84642,-0.39923 2.84642,-0.39923 z"
       id="path6363"
       style="color:#000000;display:inline;overflow:visible;visibility:visible;fill:#013397;fill-opacity:1;fill-rule:nonzero;stroke:none;stroke-width:3.4569838;marker:none;enable-background:accumulate"
       inkscape:connector-curvature="0" />
    <path
       d="m -439.90196,715.78488 c 0.13939,0.10458 0.27428,0.21489 0.40802,0.32655 0.1535,0.12901 0.30333,0.26228 0.45356,0.39506 0.15779,0.14061 0.31838,0.278 0.48122,0.41271 0.1819,0.15026 0.36998,0.29277 0.55925,0.43355 0.22676,0.16701 0.4554,0.33146 0.68289,0.49746 0.25694,0.18708 0.51102,0.37803 0.76406,0.57034 0.26151,0.19982 0.52254,0.40026 0.78587,0.59769 0.27297,0.20509 0.55259,0.40106 0.83395,0.5944 0.30632,0.2087 0.61681,0.41116 0.92795,0.61256 0.32734,0.21146 0.65635,0.42031 0.98638,0.62755 0.34033,0.21368 0.68382,0.42224 1.02868,0.6285 0.37188,0.22164 0.74602,0.43946 1.12018,0.65722 0.39329,0.22884 0.78593,0.45879 1.17909,0.68785 0.38909,0.22743 0.78091,0.45009 1.17492,0.66885 0.40484,0.22405 0.81451,0.43916 1.22513,0.65237 0.43376,0.22452 0.86945,0.44528 1.30503,0.66624 0.44014,0.2232 0.88076,0.44545 1.32172,0.66701 0.43967,0.22078 0.88074,0.43876 1.32234,0.65565 0.45038,0.22098 0.90178,0.4399 1.35358,0.65795 0.44747,0.21617 0.89681,0.4284 1.34722,0.63835 0.43352,0.20255 0.86982,0.39908 1.30761,0.5922 0.43396,0.19065 0.86894,0.37901 1.30376,0.56769 0.43845,0.19016 0.87608,0.3822 1.31514,0.57095 0.43011,0.18665 0.86316,0.36632 1.29805,0.54153 0.43558,0.17416 0.87524,0.33783 1.3158,0.49889 0.46162,0.16834 0.92326,0.33663 1.38486,0.505 0.45476,0.16706 0.9113,0.3292 1.3699,0.48537 0.45144,0.15333 0.90707,0.29374 1.36403,0.42954 0.463,0.13651 0.92802,0.26599 1.39408,0.39162 0.45989,0.12507 0.92138,0.24405 1.38376,0.3595 0.44736,0.11183 0.89667,0.21551 1.3473,0.31325 0.45471,0.0967 0.91065,0.18745 1.3668,0.27705 0.455,0.0908 0.9107,0.178 1.36683,0.26293 0.43333,0.0816 0.86791,0.15606 1.30298,0.22761 0.41405,0.0682 0.82933,0.1285 1.24467,0.18812 0.40874,0.0602 0.81771,0.11879 1.22703,0.17497 0.4005,0.0552 0.80162,0.10532 1.20334,0.15063 0.39817,0.0447 0.79729,0.0802 1.19633,0.11607 0.39901,0.0346 0.79764,0.0732 1.19596,0.11485 0.37269,0.0385 0.74486,0.0819 1.11714,0.12417 0.34868,0.0398 0.69763,0.0771 1.04668,0.11341 0.33914,0.0355 0.67861,0.0676 1.01783,0.10222 0.23434,0.0258 0.11618,0.012 0.35446,0.0413 0,0 -0.35303,2.85154 -0.35303,2.85154 l 0,0 c -0.19227,-0.024 -0.0944,-0.0124 -0.29362,-0.0345 -0.34099,-0.0349 -0.68224,-0.0671 -1.02315,-0.10287 -0.35795,-0.0373 -0.71581,-0.0756 -1.07338,-0.11637 -0.36386,-0.0414 -0.7276,-0.0838 -1.09186,-0.12153 -0.38442,-0.0403 -0.76914,-0.0775 -1.15422,-0.1109 -0.42075,-0.0378 -0.84156,-0.0756 -1.26138,-0.12274 -0.42458,-0.048 -0.84856,-0.10089 -1.27186,-0.15917 -0.41517,-0.057 -0.83001,-0.11635 -1.2446,-0.17748 -0.43473,-0.0625 -0.86937,-0.12574 -1.30272,-0.19718 -0.45498,-0.0749 -0.90943,-0.15287 -1.36259,-0.23817 -0.46538,-0.0867 -0.93034,-0.17565 -1.39457,-0.2683 -0.4747,-0.0933 -0.94919,-0.18775 -1.42236,-0.28853 -0.47963,-0.10416 -0.95789,-0.21444 -1.43404,-0.33353 -0.47967,-0.11983 -0.95842,-0.24326 -1.4355,-0.37301 -0.48973,-0.13207 -0.97836,-0.26816 -1.46486,-0.4117 -0.49305,-0.14664 -0.98466,-0.29829 -1.47174,-0.46387 -0.47798,-0.16288 -0.95391,-0.33165 -1.4279,-0.50582 -0.46234,-0.16863 -0.92471,-0.33718 -1.38707,-0.50576 -0.46975,-0.17181 -0.93853,-0.34643 -1.40292,-0.53233 -0.45531,-0.18349 -0.90874,-0.37156 -1.3591,-0.56695 -0.44196,-0.19005 -0.88257,-0.38325 -1.32392,-0.57472 -0.44023,-0.19102 -0.88061,-0.38172 -1.31994,-0.5748 -0.45588,-0.2012 -0.91024,-0.40585 -1.36169,-0.61683 -0.46203,-0.21544 -0.92301,-0.43315 -1.38204,-0.65492 -0.45771,-0.22091 -0.91502,-0.44267 -1.3713,-0.66653 -0.44942,-0.22071 -0.8983,-0.44256 -1.34575,-0.66725 -0.44423,-0.22322 -0.88812,-0.44712 -1.33152,-0.67197 -0.44368,-0.22505 -0.88747,-0.44993 -1.3293,-0.67862 -0.43437,-0.22555 -0.8677,-0.45319 -1.29591,-0.69028 -0.4113,-0.22841 -0.82039,-0.46075 -1.22656,-0.69817 -0.39274,-0.22882 -0.78498,-0.45851 -1.17786,-0.68709 -0.38407,-0.22349 -0.76811,-0.44705 -1.14983,-0.67455 -0.3627,-0.21692 -0.72397,-0.43625 -1.0819,-0.66099 -0.34121,-0.21425 -0.68139,-0.43016 -1.01982,-0.64879 -0.33338,-0.21582 -0.66603,-0.43283 -0.99414,-0.65662 -0.31383,-0.21576 -0.62566,-0.43453 -0.93019,-0.66332 -0.2683,-0.20118 -0.53447,-0.40518 -0.80089,-0.60884 -0.2381,-0.18096 -0.47718,-0.36064 -0.71898,-0.53664 -0.23485,-0.17132 -0.47093,-0.34096 -0.70488,-0.51351 -0.22894,-0.17046 -0.45626,-0.34323 -0.67624,-0.5252 -0.18648,-0.15448 -0.37076,-0.31159 -0.55161,-0.47265 -0.13023,-0.11503 -0.26002,-0.23061 -0.39287,-0.34264 -0.0959,-0.0801 -0.19238,-0.15948 -0.29213,-0.23474 0,0 1.72636,-2.29793 1.72636,-2.29793 z"
       id="path6367"
       style="color:#000000;display:inline;overflow:visible;visibility:visible;fill:#0197fd;fill-opacity:1;fill-rule:nonzero;stroke:none;stroke-width:3.4569838;marker:none;enable-background:accumulate"
       inkscape:connector-curvature="0" />
    <path
       d="m -333.68222,735.60186 c 0.10774,0.007 0.21558,0.0131 0.32345,0.0183 0.15802,0.007 0.31586,0.0172 0.47365,0.028 0.19829,0.0128 0.39649,0.0269 0.5948,0.0395 0.23787,0.0156 0.47606,0.0255 0.71434,0.0321 0.28443,0.007 0.56897,0.007 0.85347,0.007 0.32913,3.2e-4 0.65818,-0.006 0.98721,-0.0132 0.36385,-0.009 0.72716,-0.0309 1.09015,-0.0566 0.42528,-0.0312 0.8494,-0.0757 1.27356,-0.11922 0.4703,-0.0495 0.94013,-0.10328 1.40958,-0.16022 0.49721,-0.06 0.9928,-0.1321 1.48752,-0.20977 0.53787,-0.086 1.07378,-0.18358 1.61003,-0.27896 0.56799,-0.10218 1.13615,-0.20343 1.7045,-0.30351 0.57543,-0.10099 1.15014,-0.20599 1.72425,-0.31416 0.57716,-0.10875 1.152,-0.22923 1.72608,-0.35302 0.58651,-0.12824 1.1721,-0.26071 1.75759,-0.39352 0.58325,-0.13089 1.16557,-0.26587 1.74732,-0.4033 0.57979,-0.1364 1.15736,-0.28195 1.73405,-0.43085 0.59299,-0.15467 1.18499,-0.31308 1.77736,-0.47012 0.59705,-0.15828 1.19531,-0.31194 1.794,-0.46389 0.57877,-0.14615 1.15746,-0.29263 1.73558,-0.44135 0.57143,-0.14688 1.14149,-0.29898 1.71089,-0.4535 0.58011,-0.15824 1.15905,-0.32073 1.73767,-0.48429 0.57749,-0.16291 1.15354,-0.33078 1.72859,-0.50204 0.57579,-0.1717 1.14865,-0.35291 1.7206,-0.5369 0.58076,-0.18755 1.15957,-0.38107 1.73801,-0.57564 0.5807,-0.19563 1.16057,-0.39373 1.73992,-0.59333 0.57537,-0.19813 1.1492,-0.40068 1.72246,-0.60482 0.56051,-0.19891 1.12069,-0.39882 1.68019,-0.60058 0.53339,-0.1921 1.06636,-0.38539 1.59872,-0.58029 0.50781,-0.18394 1.01343,-0.37384 1.518,-0.56643 0.49612,-0.18975 0.98974,-0.38592 1.48317,-0.58252 0.49318,-0.19695 0.98665,-0.39318 1.48098,-0.5872 0.48203,-0.18936 0.96571,-0.37446 1.45019,-0.55743 0.45824,-0.17389 0.91711,-0.34611 1.37518,-0.52043 0.45283,-0.17246 0.90435,-0.34834 1.35557,-0.52496 0.45737,-0.18039 0.9156,-0.35861 1.37365,-0.53727 0.4482,-0.17404 0.8966,-0.34758 1.34416,-0.52326 0.42087,-0.16447 0.84031,-0.33259 1.25832,-0.50418 0.3978,-0.16403 0.79294,-0.33438 1.18744,-0.50613 0.38862,-0.1705 0.77701,-0.34155 1.16428,-0.51509 0.36417,-0.16332 0.72744,-0.32864 1.08997,-0.49559 0.341,-0.15679 0.68038,-0.31707 1.01864,-0.4797 0.34048,-0.16415 0.67856,-0.33321 1.01611,-0.50328 0.33615,-0.16785 0.67016,-0.33992 1.00485,-0.51066 0.30407,-0.15462 0.60842,-0.30869 0.91121,-0.46581 0.27739,-0.14344 0.55393,-0.28853 0.82953,-0.43537 0.26856,-0.14241 0.53613,-0.28667 0.80372,-0.43086 0.24751,-0.13296 0.49415,-0.26752 0.74235,-0.3992 0.0395,-0.0208 0.079,-0.0415 0.11857,-0.0623 0,0 1.33627,2.54408 1.33627,2.54408 l 0,0 c -0.0364,0.0191 -0.0727,0.0382 -0.10911,0.0573 -0.24256,0.12843 -0.48336,0.26016 -0.72526,0.38986 -0.2716,0.14628 -0.54315,0.29265 -0.8157,0.43717 -0.28486,0.1517 -0.5706,0.30173 -0.85731,0.44989 -0.30868,0.16007 -0.61887,0.31716 -0.92887,0.47466 -0.33893,0.17284 -0.67719,0.34703 -1.01759,0.517 -0.35345,0.17807 -0.70747,0.35504 -1.064,0.52688 -0.35265,0.16951 -0.70643,0.33662 -1.06195,0.50004 -0.37148,0.17098 -0.74372,0.34033 -1.11688,0.50762 -0.39659,0.17763 -0.79425,0.35283 -1.19221,0.52735 -0.41314,0.17983 -0.82696,0.35813 -1.24358,0.52979 -0.43169,0.17707 -0.86477,0.35075 -1.29939,0.52052 -0.44946,0.17635 -0.89972,0.35066 -1.34981,0.52538 -0.45697,0.17823 -0.9141,0.35601 -1.37038,0.53599 -0.45968,0.17994 -0.91966,0.35911 -1.381,0.53479 -0.46041,0.17519 -0.9216,0.34829 -1.38219,0.52302 -0.47291,0.17851 -0.94501,0.35916 -1.4155,0.54394 -0.48974,0.19217 -0.9786,0.3866 -1.46718,0.58168 -0.5064,0.20175 -1.013,0.403 -1.52216,0.59769 -0.51683,0.19722 -1.03471,0.39174 -1.55485,0.58012 -0.53675,0.19643 -1.07408,0.39128 -1.61186,0.58489 -0.5631,0.203 -1.12687,0.40417 -1.691,0.60433 -0.58254,0.2074 -1.16566,0.41322 -1.75033,0.61455 -0.58597,0.20187 -1.17246,0.40223 -1.7598,0.60009 -0.59047,0.19861 -1.18133,0.39613 -1.77418,0.58756 -0.59179,0.19034 -1.18454,0.37779 -1.78029,0.55542 -0.58787,0.17506 -1.17674,0.34668 -1.76709,0.5132 -0.58829,0.16629 -1.17688,0.3315 -1.76669,0.49237 -0.58162,0.15785 -1.16392,0.31324 -1.74762,0.46324 -0.58114,0.14948 -1.16285,0.29673 -1.74466,0.44362 -0.58884,0.1494 -1.17727,0.3005 -1.76449,0.45617 -0.59835,0.15862 -1.19632,0.31866 -1.7953,0.47485 -0.59589,0.15385 -1.19268,0.30422 -1.79176,0.44516 -0.59006,0.13938 -1.1807,0.27631 -1.77229,0.40906 -0.59548,0.13506 -1.19104,0.26979 -1.78757,0.40017 -0.59854,0.12903 -1.19785,0.25455 -1.79958,0.3679 -0.58533,0.11028 -1.17124,0.21739 -1.75789,0.32036 -0.56673,0.0998 -1.13324,0.20082 -1.69958,0.30273 -0.55546,0.0988 -1.11058,0.19987 -1.66774,0.28879 -0.52778,0.0828 -1.05648,0.15982 -1.58692,0.2238 -0.48705,0.0591 -0.97447,0.115 -1.4624,0.16632 -0.45415,0.0466 -0.9083,0.094 -1.36367,0.1273 -0.40874,0.0289 -0.81786,0.0533 -1.22756,0.0633 -0.34793,0.008 -0.6959,0.0143 -1.04393,0.0141 -0.31404,10e-4 -0.62812,5.6e-4 -0.94207,-0.007 -0.27218,-0.008 -0.54428,-0.0186 -0.81601,-0.0364 -0.20317,-0.0128 -0.40623,-0.027 -0.60937,-0.0402 -0.13811,-0.009 -0.27627,-0.0185 -0.41457,-0.0244 -0.12918,-0.006 -0.25833,-0.013 -0.38733,-0.0221 0,0 0.20077,-2.86726 0.20077,-2.86726 z"
       id="path6369"
       style="color:#000000;display:inline;overflow:visible;visibility:visible;fill:#0197fd;fill-opacity:1;fill-rule:nonzero;stroke:none;stroke-width:3.4569838;marker:none;enable-background:accumulate"
       inkscape:connector-curvature="0" />
    <path
       d="m -281.66884,717.27749 c 0.15085,-0.0432 0.30395,-0.0777 0.45754,-0.10951 0.17389,-0.0361 0.35001,-0.0596 0.52614,-0.0814 0.18817,-0.0225 0.37652,-0.0433 0.56508,-0.0623 0.21337,-0.0211 0.427,-0.0395 0.64067,-0.0573 0.21884,-0.0182 0.43782,-0.0345 0.65686,-0.05 0.22417,-0.0165 0.44816,-0.0351 0.67219,-0.0534 0.25209,-0.0222 0.50426,-0.0436 0.75651,-0.0639 0.2613,-0.0213 0.52288,-0.039 0.78425,-0.0594 0.25272,-0.0188 0.50504,-0.042 0.75715,-0.0675 0.25957,-0.0275 0.51826,-0.0623 0.77687,-0.0975 0.27269,-0.037 0.54555,-0.0727 0.81812,-0.1106 0.2623,-0.0362 0.52473,-0.0716 0.78681,-0.10937 0.26263,-0.0373 0.52462,-0.0788 0.78626,-0.12237 0.2681,-0.0439 0.53556,-0.0917 0.8031,-0.13888 0.25588,-0.0453 0.51195,-0.0896 0.76816,-0.13304 0.24388,-0.0399 0.4874,-0.0819 0.73114,-0.12253 0.23513,-0.0407 0.47023,-0.0815 0.70547,-0.12151 0.22238,-0.0378 0.4449,-0.0748 0.66749,-0.11135 0.1941,-0.0332 0.38804,-0.0674 0.58162,-0.10349 0.18763,-0.0347 0.37468,-0.0724 0.56184,-0.10959 0.17272,-0.0329 0.34469,-0.0695 0.51679,-0.1054 0.17254,-0.0359 0.34562,-0.0692 0.51834,-0.10422 0.16303,-0.0332 0.32564,-0.0684 0.48838,-0.10298 0.1496,-0.0317 0.29926,-0.0631 0.44855,-0.0962 0.14702,-0.0317 0.29354,-0.0657 0.44022,-0.099 0.13425,-0.0295 0.26759,-0.063 0.40105,-0.0958 0.12624,-0.0311 0.25245,-0.0622 0.37867,-0.0934 0.11196,-0.0276 0.2239,-0.0553 0.33585,-0.0829 0.099,-0.0244 0.19798,-0.0489 0.29698,-0.0733 0.0875,-0.0216 0.17505,-0.0432 0.26258,-0.0648 0.0774,-0.0191 0.15478,-0.0382 0.23217,-0.0573 0.0684,-0.0169 0.13685,-0.0338 0.20528,-0.0507 0.10112,-0.0251 0.20345,-0.0442 0.30638,-0.06 1.08001,-0.14619 0.86159,0.61691 1.6263,1.91509 -0.0966,0.32218 -0.28826,0.59155 -0.52494,0.82448 -0.098,0.0933 -0.2018,0.18025 -0.30622,0.26626 -0.1005,0.0817 -0.20212,0.1619 -0.30422,0.24154 -0.10871,0.0847 -0.21923,0.16709 -0.32967,0.24953 -0.12053,0.0901 -0.24218,0.17877 -0.36424,0.26683 -0.13221,0.0962 -0.26545,0.19096 -0.39938,0.28475 -0.13849,0.0971 -0.2771,0.19408 -0.41669,0.28962 -0.12637,0.0883 -0.25321,0.176 -0.37987,0.26391 -0.13391,0.0925 -0.2681,0.1846 -0.40238,0.27657 -0.15371,0.10472 -0.30707,0.20995 -0.46151,0.3136 -0.15669,0.10466 -0.31184,0.21158 -0.46804,0.31699 -0.14542,0.0979 -0.29101,0.19557 -0.43658,0.29326 -0.13421,0.089 -0.26799,0.17873 -0.40089,0.26972 -0.14517,0.0996 -0.28963,0.20028 -0.43432,0.3006 -0.14432,0.10052 -0.28809,0.20181 -0.43188,0.30309 -0.13642,0.0971 -0.271,0.19674 -0.40585,0.29602 -0.14435,0.10775 -0.28958,0.21432 -0.43551,0.31993 -0.15355,0.11108 -0.30828,0.22051 -0.46326,0.32959 -0.15038,0.10681 -0.30096,0.21336 -0.45198,0.31927 -0.13884,0.0978 -0.27664,0.19696 -0.41466,0.29586 -0.12892,0.0918 -0.2573,0.18438 -0.3853,0.27747 -0.13183,0.0951 -0.26415,0.18951 -0.3958,0.28484 -0.12485,0.0909 -0.24927,0.18246 -0.37276,0.27524 -0.12015,0.092 -0.2427,0.18089 -0.36367,0.27185 -0.11035,0.0838 -0.22118,0.16707 -0.33193,0.25038 -0.10139,0.0778 -0.20179,0.15682 -0.30137,0.23686 -0.11869,0.0961 -0.23595,0.19387 -0.35348,0.29133 -0.11651,0.0966 -0.23302,0.19329 -0.34953,0.28993 -0.10772,0.0893 -0.21577,0.17811 -0.32375,0.26706 -0.1031,0.0857 -0.20713,0.17019 -0.31021,0.25588 -0.0956,0.0797 -0.19092,0.15954 -0.28631,0.2394 -0.0856,0.0717 -0.17126,0.14337 -0.25689,0.21506 -0.0757,0.0634 -0.15147,0.12682 -0.2272,0.19023 -0.067,0.0561 -0.13393,0.11213 -0.20089,0.1682 -0.0592,0.0496 -0.11841,0.0991 -0.17762,0.14871 -0.0524,0.0438 -0.10471,0.0877 -0.15706,0.1315 -0.0463,0.0388 -0.0926,0.0775 -0.13887,0.11626 -0.007,0.006 -0.0143,0.012 -0.0215,0.018 0,0 -1.8452,-2.20438 -1.8452,-2.20438 l 0,0 c 0.007,-0.006 0.0143,-0.012 0.0215,-0.018 0.0463,-0.0388 0.0926,-0.0775 0.13889,-0.11623 0.0524,-0.0438 0.10472,-0.0876 0.15708,-0.13146 0.0592,-0.0496 0.11844,-0.0991 0.17766,-0.14868 0.067,-0.0561 0.13395,-0.1121 0.20093,-0.16815 0.0758,-0.0634 0.1515,-0.12679 0.22725,-0.19018 0.0857,-0.0717 0.17139,-0.14343 0.25708,-0.21514 0.098,-0.082 0.19604,-0.16409 0.29424,-0.24592 0.10627,-0.0883 0.21343,-0.17546 0.31971,-0.26372 0.10548,-0.0869 0.21106,-0.17364 0.31629,-0.26083 0.1166,-0.0967 0.2332,-0.19336 0.3498,-0.29004 0.12893,-0.10689 0.25757,-0.21414 0.38783,-0.31942 0.12364,-0.0993 0.24816,-0.19753 0.37429,-0.29367 0.11144,-0.0837 0.22284,-0.16753 0.33389,-0.25178 0.12092,-0.0906 0.24308,-0.17963 0.36318,-0.27139 0.13691,-0.10277 0.27477,-0.20428 0.41319,-0.30502 0.13001,-0.0941 0.26054,-0.18745 0.39078,-0.28123 0.13347,-0.0971 0.26733,-0.19357 0.40177,-0.28929 0.14609,-0.10465 0.29198,-0.20958 0.43894,-0.31301 0.14965,-0.10483 0.29874,-0.21047 0.44773,-0.31624 0.14482,-0.10189 0.28939,-0.20416 0.43286,-0.30796 0.13951,-0.10083 0.27812,-0.20291 0.41612,-0.3058 0.15103,-0.11113 0.3018,-0.22262 0.4547,-0.33117 0.14962,-0.10535 0.29922,-0.21074 0.44939,-0.3153 0.14932,-0.10348 0.29834,-0.2074 0.44813,-0.31019 0.14031,-0.096 0.28145,-0.19085 0.42314,-0.28483 0.14351,-0.0963 0.28705,-0.19249 0.43042,-0.28897 0.15842,-0.10686 0.31576,-0.21531 0.47467,-0.32144 0.14669,-0.0983 0.2921,-0.19851 0.43808,-0.29787 0.12947,-0.0887 0.25885,-0.17754 0.38799,-0.26673 0.13185,-0.0915 0.26382,-0.18277 0.39543,-0.27457 0.13137,-0.0898 0.26171,-0.18117 0.39201,-0.27255 0.1229,-0.0859 0.24493,-0.17307 0.3662,-0.26126 0.10927,-0.0787 0.21801,-0.15815 0.32587,-0.23879 0.0941,-0.0702 0.18836,-0.14028 0.281,-0.21246 0.0819,-0.0639 0.16352,-0.12821 0.24428,-0.19357 0.0465,-0.0384 0.0931,-0.0765 0.13821,-0.11659 -0.10548,0.12162 -0.19027,0.26051 -0.23179,0.41746 0.72521,1.084 0.58706,1.86306 1.52242,1.75904 0.0521,-0.0102 0.0401,-0.007 -0.0139,0.003 -0.0684,0.0169 -0.13686,0.0337 -0.20529,0.0506 -0.0774,0.0191 -0.1548,0.0382 -0.23219,0.0572 -0.0875,0.0216 -0.17506,0.0432 -0.26259,0.0648 -0.099,0.0244 -0.198,0.0488 -0.29699,0.0732 -0.11197,0.0276 -0.22394,0.0552 -0.33591,0.0828 -0.12699,0.0313 -0.25398,0.0626 -0.38097,0.0939 -0.15055,0.037 -0.30101,0.0745 -0.45242,0.10782 -0.15089,0.0341 -0.3016,0.0691 -0.45282,0.10179 -0.15777,0.0349 -0.3159,0.0682 -0.474,0.10164 -0.17104,0.0363 -0.34194,0.0733 -0.51328,0.10811 -0.16755,0.034 -0.33545,0.0663 -0.50286,0.10102 -0.18138,0.0378 -0.36264,0.0763 -0.54466,0.111 -0.198,0.0393 -0.3959,0.0791 -0.5944,0.1158 -0.21394,0.0399 -0.42825,0.0777 -0.64279,0.11414 -0.21726,0.0356 -0.43446,0.0717 -0.65151,0.10858 -0.23815,0.0404 -0.47614,0.0819 -0.71419,0.12292 -0.2415,0.0403 -0.48277,0.0819 -0.72439,0.12137 -0.2498,0.0423 -0.49945,0.0855 -0.74893,0.12961 -0.27657,0.0487 -0.55305,0.098 -0.83019,0.14346 -0.28219,0.0469 -0.56473,0.0918 -0.84797,0.13202 -0.26689,0.0385 -0.53411,0.0746 -0.80124,0.11141 -0.27544,0.0382 -0.55117,0.0743 -0.82674,0.11172 -0.29108,0.0396 -0.58229,0.0785 -0.87448,0.10912 -0.27407,0.0278 -0.54838,0.0529 -0.82309,0.0734 -0.25898,0.0202 -0.51815,0.0378 -0.77706,0.0589 -0.25121,0.0203 -0.50231,0.0417 -0.75336,0.0638 -0.23422,0.0191 -0.46841,0.0386 -0.70278,0.0558 -0.2073,0.0147 -0.41454,0.0302 -0.62166,0.0474 -0.197,0.0164 -0.39396,0.0333 -0.59069,0.0528 -0.16719,0.0168 -0.3342,0.0353 -0.50105,0.0554 -0.0997,0.0123 -0.19953,0.0244 -0.29803,0.044 -0.0844,0.0173 -0.16858,0.0355 -0.25151,0.0589 0,0 -0.78661,-2.76452 -0.78661,-2.76452 z"
       id="path6371"
       style="color:#000000;display:inline;overflow:visible;visibility:visible;fill:#0197fd;fill-opacity:1;fill-rule:nonzero;stroke:none;stroke-width:3.4569838;marker:none;enable-background:accumulate"
       inkscape:connector-curvature="0" />
    <path
       d="m -444.89788,713.62579 c 0.12703,0.0384 0.25248,0.0816 0.37803,0.12444 0.1475,0.0501 0.29299,0.10568 0.43733,0.16419 0.16504,0.0673 0.32647,0.14298 0.48746,0.21935 0.15676,0.0737 0.31312,0.14824 0.46936,0.22304 0.16926,0.0803 0.33829,0.1612 0.50659,0.24355 0.1773,0.0864 0.3537,0.17463 0.52978,0.26348 0.1661,0.0852 0.33463,0.16523 0.50406,0.2435 0.17071,0.0788 0.34452,0.15054 0.51894,0.22067 0.19084,0.0779 0.38264,0.15347 0.57442,0.22903 0.18106,0.0707 0.36294,0.13916 0.54604,0.20435 0.18801,0.0656 0.37772,0.12619 0.56785,0.1853 0.20911,0.0642 0.41923,0.12505 0.62961,0.18494 0.21925,0.062 0.44012,0.11802 0.66095,0.17406 0.23208,0.0586 0.46549,0.11176 0.69882,0.16514 0.24465,0.0548 0.48968,0.10788 0.73474,0.16084 0.23984,0.0519 0.48047,0.0999 0.72139,0.14638 0.24548,0.046 0.49082,0.0928 0.73641,0.13811 0.23761,0.0439 0.47578,0.0845 0.71416,0.1239 0.23645,0.0389 0.47338,0.0749 0.71034,0.11058 0.22677,0.034 0.45373,0.0666 0.68075,0.0988 0.20037,0.029 0.40121,0.0548 0.60258,0.0759 0.19112,0.0203 0.38284,0.0341 0.5745,0.048 0.18615,0.0136 0.37231,0.0267 0.55869,0.0367 0.17477,0.0101 0.34968,0.0165 0.52466,0.0217 0.164,0.003 0.32802,0.005 0.49205,0.003 0.16602,-0.002 0.33203,-0.004 0.49804,-0.007 0.15024,-0.002 0.30048,-0.004 0.45072,-0.006 0.13378,-0.002 0.26756,-0.004 0.40133,-0.006 0.0841,-10e-4 0.0423,-5.8e-4 0.12562,-0.002 0,0 0.0395,2.8741 0.0395,2.8741 l 0,0 c -0.0832,0.001 -0.0414,5.6e-4 -0.1254,0.002 -0.1335,0.002 -0.267,0.003 -0.4005,0.006 -0.15035,0.002 -0.3007,0.004 -0.45104,0.006 -0.17159,0.002 -0.34319,0.005 -0.51479,0.007 -0.20017,0.002 -0.40033,2e-4 -0.60045,-0.005 -0.19833,-0.006 -0.3966,-0.0133 -0.59471,-0.0247 -0.20416,-0.011 -0.40812,-0.0251 -0.61202,-0.0402 -0.22302,-0.0162 -0.44606,-0.0327 -0.66843,-0.0564 -0.23527,-0.0251 -0.47009,-0.0543 -0.70422,-0.0885 -0.23516,-0.0334 -0.47025,-0.0672 -0.70515,-0.10244 -0.25044,-0.0378 -0.50085,-0.0758 -0.75077,-0.11701 -0.25621,-0.0424 -0.51221,-0.0861 -0.7676,-0.13326 -0.25321,-0.0468 -0.50616,-0.0949 -0.75924,-0.14245 -0.26167,-0.0506 -0.52305,-0.10276 -0.78355,-0.1591 -0.25635,-0.0554 -0.51269,-0.11094 -0.7686,-0.16835 -0.25538,-0.0584 -0.51082,-0.11671 -0.7648,-0.18103 -0.2476,-0.0629 -0.49519,-0.12588 -0.74098,-0.19554 -0.23277,-0.0663 -0.46524,-0.13366 -0.69658,-0.20482 -0.22745,-0.0708 -0.4544,-0.14343 -0.67918,-0.2224 -0.21268,-0.0759 -0.42416,-0.15518 -0.63446,-0.2375 -0.19827,-0.0781 -0.39656,-0.15627 -0.59388,-0.2368 -0.2189,-0.0882 -0.43692,-0.17871 -0.65117,-0.27778 -0.19954,-0.0922 -0.39793,-0.18675 -0.59371,-0.28673 -0.16576,-0.0837 -0.33187,-0.16671 -0.4988,-0.24803 -0.16059,-0.0787 -0.32208,-0.1556 -0.48361,-0.23238 -0.15323,-0.0734 -0.30661,-0.14642 -0.46037,-0.21865 -0.11195,-0.0531 -0.2239,-0.10638 -0.33848,-0.15363 -0.0932,-0.0381 -0.18735,-0.0739 -0.28275,-0.10629 -0.0896,-0.0306 -0.17896,-0.0616 -0.26928,-0.0899 0,0 0.81977,-2.7549 0.81977,-2.7549 z"
       id="path6373"
       style="color:#000000;display:inline;overflow:visible;visibility:visible;fill:#0197fd;fill-opacity:1;fill-rule:nonzero;stroke:none;stroke-width:3.4569838;marker:none;enable-background:accumulate"
       inkscape:connector-curvature="0" />
    <path
       d="m -444.05763,713.6546 c 0.0843,0.0793 0.17006,0.15701 0.25467,0.23596 0.12674,0.11727 0.24722,0.24093 0.36507,0.36705 0.12448,0.13414 0.24312,0.27349 0.36096,0.41345 0.11048,0.13268 0.22341,0.26327 0.33742,0.39291 0.13755,0.15468 0.27524,0.3092 0.41005,0.46628 0.1567,0.18175 0.30518,0.3703 0.45004,0.56155 0.14282,0.19058 0.27958,0.3856 0.41526,0.5813 0.12667,0.18177 0.25095,0.36517 0.37608,0.54799 0.11983,0.17577 0.23858,0.35227 0.35761,0.52857 0.11886,0.17605 0.23459,0.35415 0.34922,0.53296 0.11168,0.17421 0.21852,0.35143 0.32701,0.52763 0.10315,0.16909 0.20631,0.33819 0.30876,0.50771 0.10646,0.1767 0.20906,0.35567 0.31076,0.53513 0.098,0.175 0.19379,0.35119 0.29003,0.52714 0.0913,0.16624 0.18314,0.33214 0.27384,0.49868 0.0839,0.15115 0.16745,0.30247 0.25108,0.45377 0.0759,0.1373 0.15179,0.27462 0.2277,0.41193 0.0765,0.13884 0.15091,0.27877 0.22439,0.41922 0.0679,0.13055 0.13619,0.26085 0.20458,0.39113 0.0652,0.12372 0.1304,0.24747 0.19636,0.37079 0.069,0.12793 0.13496,0.25747 0.20226,0.38629 0.0657,0.12721 0.1308,0.25477 0.19585,0.38234 0.0613,0.12028 0.12145,0.24113 0.18294,0.3613 0.0593,0.11385 0.11755,0.22828 0.17567,0.34276 0.0518,0.10214 0.1036,0.2043 0.15537,0.30646 0.0473,0.0937 0.0952,0.18707 0.14196,0.28102 0.0523,0.10446 0.10109,0.21056 0.14846,0.31731 0.0355,0.0816 0.0707,0.16326 0.10697,0.24451 0.0341,0.0766 0.0683,0.1533 0.10241,0.22996 0.0301,0.0677 0.0603,0.13545 0.0905,0.20317 0.0267,0.0599 0.0533,0.11976 0.08,0.17965 0.0235,0.0529 0.0471,0.10589 0.0707,0.15884 0.0208,0.0468 0.0417,0.0936 0.0625,0.14044 0.0185,0.0414 0.0369,0.0828 0.0553,0.12418 0.0177,0.0393 0.035,0.0788 0.052,0.11836 0,0 -2.64812,1.11894 -2.64812,1.11894 l 0,0 c -0.0101,-0.0228 -0.0201,-0.0456 -0.0303,-0.0684 -0.0184,-0.0414 -0.0369,-0.0828 -0.0553,-0.12419 -0.0208,-0.0468 -0.0417,-0.0936 -0.0625,-0.14045 -0.0236,-0.0529 -0.0471,-0.10591 -0.0707,-0.15886 -0.0267,-0.0599 -0.0533,-0.11977 -0.0799,-0.17966 -0.0301,-0.0677 -0.0603,-0.13543 -0.0904,-0.20315 -0.0338,-0.0759 -0.0675,-0.15186 -0.10138,-0.22776 -0.0374,-0.0839 -0.0741,-0.16819 -0.1105,-0.25257 -0.0301,-0.0674 -0.0605,-0.13485 -0.0938,-0.20082 -0.0433,-0.0874 -0.0881,-0.17412 -0.13198,-0.26129 -0.0514,-0.10158 -0.10292,-0.20317 -0.15442,-0.30473 -0.0571,-0.11253 -0.11436,-0.225 -0.17263,-0.33693 -0.0615,-0.12073 -0.12224,-0.24187 -0.18363,-0.36267 -0.0611,-0.11992 -0.12228,-0.23983 -0.18402,-0.35943 -0.0624,-0.11994 -0.1239,-0.24033 -0.18803,-0.35936 -0.0694,-0.12981 -0.13801,-0.26004 -0.20664,-0.39026 -0.0691,-0.1316 -0.13809,-0.26322 -0.20665,-0.39508 -0.0632,-0.12094 -0.12726,-0.24141 -0.19306,-0.36095 -0.0758,-0.13729 -0.15169,-0.27458 -0.22754,-0.41187 -0.0865,-0.15658 -0.17301,-0.31317 -0.25971,-0.46966 -0.0898,-0.16499 -0.18087,-0.32929 -0.27122,-0.49399 -0.0893,-0.16326 -0.1782,-0.32671 -0.2689,-0.48918 -0.0885,-0.15611 -0.17752,-0.31187 -0.27006,-0.46561 -0.0985,-0.16301 -0.1977,-0.32559 -0.29684,-0.48821 -0.0991,-0.16115 -0.19684,-0.32314 -0.2987,-0.48258 -0.10237,-0.15968 -0.20559,-0.31882 -0.31174,-0.47603 -0.11567,-0.1714 -0.2311,-0.34294 -0.34752,-0.51383 -0.1218,-0.1781 -0.24291,-0.35669 -0.36625,-0.53375 -0.11306,-0.16325 -0.22699,-0.32597 -0.3457,-0.48518 -0.10912,-0.14476 -0.22142,-0.28715 -0.33977,-0.42451 -0.12659,-0.14803 -0.25699,-0.29271 -0.38607,-0.43856 -0.12758,-0.14511 -0.25403,-0.2912 -0.37776,-0.43961 -0.0872,-0.10354 -0.17452,-0.20698 -0.26637,-0.30642 -0.0714,-0.0773 -0.14516,-0.15247 -0.2224,-0.22402 -0.0961,-0.0898 -0.19407,-0.17766 -0.28904,-0.2687 0,0 1.99574,-2.06843 1.99574,-2.06843 z"
       id="path6375"
       style="color:#000000;display:inline;overflow:visible;visibility:visible;fill:#0197fd;fill-opacity:1;fill-rule:nonzero;stroke:none;stroke-width:3.4569838;marker:none;enable-background:accumulate"
       inkscape:connector-curvature="0" />
    <text
       sodipodi:linespacing="125%"
       id="text4404"
       y="902.00513"
       x="-234.67117"
       style="color:#000000;font-style:normal;font-variant:normal;font-weight:normal;font-stretch:normal;font-size:32.40151596px;line-height:125%;font-family:'Comic Sans MS';-inkscape-font-specification:'Comic Sans MS';text-indent:0;text-align:start;text-decoration:none;text-decoration-line:none;letter-spacing:0px;word-spacing:0px;text-transform:none;direction:ltr;block-progression:tb;writing-mode:lr-tb;text-anchor:start;display:inline;overflow:visible;visibility:visible;fill:#000000;fill-opacity:1;fill-rule:nonzero;stroke:none;stroke-width:1px;marker:none;enable-background:accumulate"
       xml:space="preserve"><tspan
         y="902.00513"
         x="-234.67117"
         id="tspan4406"
         sodipodi:role="line" /></text>
  </g>
</svg>
